<svg width="61" height="48" viewBox="0 0 61 48" fill="none" xmlns="http://www.w3.org/2000/svg">
<path d="M21.5136 7.14757L21.513 7.14796C21.4754 7.16977 21.4342 7.18443 21.3917 7.19138L21.3323 7.19127C21.2541 7.19113 21.1781 7.16522 21.1161 7.11754C21.054 7.06986 21.0094 7.00307 20.9892 6.9275C20.9689 6.85193 20.9741 6.77179 21.004 6.69947C21.0335 6.62787 21.0857 6.56788 21.1524 6.5286C21.4312 6.37064 21.7131 6.21573 21.9982 6.06388C22.0395 6.04221 22.0846 6.02882 22.131 6.02448C22.1776 6.02011 22.2247 6.02498 22.2694 6.0388C22.3142 6.05262 22.3558 6.07512 22.3919 6.10502L22.7678 5.6515L22.3919 6.10502C22.428 6.13492 22.4578 6.17164 22.4797 6.21307C22.5016 6.25449 22.5151 6.29983 22.5194 6.34648L23.1101 6.29122L22.5194 6.34648C22.5238 6.39313 22.5189 6.44018 22.5051 6.48495C22.4913 6.52973 22.4688 6.57133 22.4389 6.6074C22.409 6.64348 22.3723 6.67331 22.3309 6.69519L22.3304 6.69545C22.0549 6.84128 21.7827 6.99198 21.5136 7.14757Z" fill="url(#paint0_linear_386_903)" stroke="white" stroke-width="1.18648"/>
<path d="M44.5823 7.67109C44.6614 7.72087 44.757 7.73751 44.8483 7.7174C44.94 7.69722 45.0199 7.64169 45.0708 7.56289L45.5691 7.88474L45.0708 7.56289C45.1217 7.48409 45.1394 7.38839 45.1201 7.29659C45.101 7.20562 45.0471 7.12577 44.9699 7.07407C44.7111 6.90752 44.4478 6.74522 44.1802 6.58717C44.1038 6.55548 44.0185 6.55134 43.939 6.57584C43.8534 6.60224 43.7809 6.65995 43.736 6.73746C43.691 6.81498 43.677 6.90658 43.6966 6.99399C43.7163 7.08141 43.7681 7.1582 43.8419 7.20905L43.9139 7.25869C44.1401 7.39378 44.3629 7.53124 44.5823 7.67109ZM44.5823 7.67109C44.582 7.67094 44.5818 7.67079 44.5816 7.67065L44.5603 7.70426L44.5823 7.67109Z" fill="url(#paint1_linear_386_903)" stroke="white" stroke-width="1.18648"/>
<path d="M25.9502 5.80064L25.7649 5.23707C25.7293 5.24877 25.6921 5.25478 25.6546 5.25486L25.5962 5.255C25.5321 5.24458 25.4717 5.21678 25.4219 5.17414L25.0362 5.62492L25.4219 5.17414C25.3576 5.11915 25.315 5.04308 25.3018 4.95955C25.2885 4.87602 25.3054 4.79049 25.3494 4.71829C25.3935 4.64609 25.4618 4.59193 25.5421 4.56552L25.5428 4.5653C25.8477 4.46469 26.1524 4.37168 26.4569 4.28626C26.5452 4.26553 26.6381 4.27926 26.7167 4.32479C26.797 4.3713 26.856 4.44731 26.881 4.53664C26.9061 4.62597 26.8953 4.72156 26.8509 4.80303C26.8077 4.88226 26.7362 4.94205 26.6508 4.97049C26.3536 5.05146 26.0582 5.14038 25.7644 5.23723L25.9502 5.80064ZM25.9502 5.80064C26.2381 5.70572 26.5276 5.61872 26.8187 5.53962L25.6559 5.8481C25.7559 5.84788 25.8552 5.83186 25.9502 5.80064Z" fill="url(#paint2_linear_386_903)" stroke="white" stroke-width="1.18648"/>
<path d="M36.0108 4.39146L35.9893 4.38991H35.9679H35.8709C35.7072 4.36497 35.5391 4.34208 35.3665 4.32123L35.3614 4.30591L34.9824 4.26517C34.9352 4.26009 34.8895 4.24578 34.8479 4.22303C34.8062 4.20029 34.7694 4.16956 34.7397 4.1326C34.7099 4.09564 34.6877 4.05318 34.6743 4.00765C34.6609 3.96212 34.6566 3.91439 34.6617 3.8672C34.6668 3.82001 34.6811 3.77428 34.7039 3.73262C34.7266 3.69097 34.7573 3.6542 34.7943 3.62442C34.8312 3.59463 34.8737 3.57242 34.9192 3.55905C34.9644 3.54578 35.0118 3.54147 35.0587 3.54637C35.3898 3.58352 35.7094 3.62523 36.0175 3.67146L36.04 3.67483L36.0626 3.67647C36.1096 3.67987 36.1554 3.69249 36.1974 3.7136C36.2395 3.73471 36.277 3.7639 36.3078 3.7995C36.3386 3.83511 36.3621 3.87643 36.3769 3.9211C36.3917 3.96577 36.3976 4.01293 36.3942 4.05988L36.9859 4.10278L36.3942 4.05988C36.3908 4.10684 36.3782 4.15265 36.3571 4.19472C36.3359 4.23679 36.3068 4.27429 36.2711 4.30508C36.2355 4.33587 36.1942 4.35935 36.1496 4.37417C36.1049 4.38899 36.0577 4.39487 36.0108 4.39146Z" fill="url(#paint3_linear_386_903)" stroke="white" stroke-width="1.18648"/>
<path d="M30.2869 4.2734H30.1746C30.11 4.26147 30.0494 4.23183 29.9998 4.18702C29.9296 4.12348 29.8875 4.03463 29.8827 3.94003C29.878 3.84543 29.9111 3.75283 29.9746 3.68259C30.0382 3.61236 30.127 3.57024 30.2216 3.56551L30.2369 3.56475L30.2521 3.5632C30.5863 3.52916 30.9071 3.50296 31.2147 3.48451C31.3093 3.47883 31.4024 3.51099 31.4734 3.57393C31.5443 3.63686 31.5874 3.72541 31.5931 3.8201C31.5988 3.91478 31.5666 4.00785 31.5037 4.07881C31.4407 4.14978 31.3522 4.19285 31.2575 4.19853L31.2575 4.19853L31.256 4.19862C30.9545 4.21747 30.6543 4.24239 30.3556 4.2734H30.2869Z" fill="url(#paint4_linear_386_903)" stroke="white" stroke-width="1.18648"/>
<path d="M40.4387 5.57797L40.4396 5.57832C40.4833 5.59492 40.5299 5.60274 40.5766 5.60135C40.6234 5.59995 40.6694 5.58937 40.712 5.57019L40.4387 5.57797ZM40.4387 5.57797C40.1517 5.46956 39.8631 5.36738 39.5729 5.27145M40.4387 5.57797L39.5729 5.27145M39.5729 5.27145C39.4926 5.23767 39.4273 5.17551 39.3897 5.09662C39.3504 5.01444 39.3442 4.92035 39.3723 4.83371C39.4003 4.74708 39.4605 4.67449 39.5404 4.63087C39.6164 4.58943 39.7046 4.57714 39.7888 4.596C40.0904 4.69583 40.3923 4.80158 40.6942 4.91326C40.7372 4.92985 40.7766 4.95465 40.8102 4.98627C40.8442 5.01834 40.8716 5.05679 40.8908 5.09943C40.9099 5.14208 40.9205 5.18809 40.9219 5.23482C40.9233 5.28156 40.9155 5.32811 40.8989 5.37183C40.8823 5.41555 40.8572 5.45556 40.8252 5.4896C40.7931 5.52363 40.7547 5.55102 40.712 5.57019L39.5729 5.27145Z" fill="url(#paint5_linear_386_903)" stroke="white" stroke-width="1.18648"/>
<path d="M51.1561 14.2509L51.151 14.2424L51.1457 14.2341C50.9757 13.9693 50.7991 13.7109 50.6159 13.4589C50.5895 13.4212 50.5706 13.3788 50.5603 13.3339C50.5498 13.2883 50.5484 13.2411 50.5562 13.195C50.564 13.1489 50.5808 13.1047 50.6056 13.0651C50.6304 13.0254 50.6628 12.991 50.7009 12.9639C50.739 12.9368 50.7821 12.9174 50.8277 12.907C50.8733 12.8965 50.9205 12.8951 50.9667 12.9029C51.0128 12.9106 51.0569 12.9274 51.0966 12.9523C51.136 12.9769 51.1702 13.0091 51.1972 13.0469C51.3828 13.3099 51.5638 13.5759 51.7401 13.8451L51.7461 13.8541L51.7523 13.863C51.78 13.9021 51.7996 13.9464 51.8097 13.9932C51.8199 14.04 51.8205 14.0884 51.8115 14.1355C51.8025 14.1826 51.7841 14.2274 51.7574 14.2672L52.2146 14.5741L51.7574 14.2672C51.7307 14.307 51.6962 14.3409 51.6561 14.3671C51.6159 14.3932 51.5708 14.411 51.5236 14.4193C51.4764 14.4276 51.428 14.4263 51.3814 14.4155C51.3347 14.4046 51.2907 14.3845 51.2519 14.3562C51.2132 14.3279 51.1807 14.2921 51.1561 14.2509Z" fill="url(#paint6_linear_386_903)" stroke="white" stroke-width="1.18648"/>
<path d="M48.791 10.4946L48.791 10.4946C48.7731 10.5379 48.7468 10.5772 48.7137 10.6103L49.1111 11.0077L48.7137 10.6103C48.6806 10.6434 48.6413 10.6697 48.5981 10.6876C48.5548 10.7055 48.5085 10.7147 48.4617 10.7147C48.4148 10.7147 48.3685 10.7055 48.3252 10.6876C48.2825 10.6699 48.2436 10.644 48.2108 10.6115C47.9912 10.3886 47.765 10.1724 47.5324 9.96267L47.5324 9.96263L47.5261 9.95713C47.4905 9.9259 47.4614 9.88786 47.4407 9.84525C47.4199 9.80264 47.4079 9.75631 47.4053 9.709C47.4027 9.66168 47.4096 9.61432 47.4255 9.56969C47.4414 9.52506 47.4661 9.48406 47.4981 9.4491L47.0605 9.04857L47.4981 9.4491C47.5301 9.41414 47.5688 9.38592 47.6118 9.3661C47.6549 9.34628 47.7015 9.33526 47.7488 9.33367C47.7962 9.33209 47.8434 9.33998 47.8877 9.35689C47.9319 9.37379 47.9724 9.39936 48.0067 9.43211L48.012 9.43724L48.0175 9.44223C48.2541 9.65734 48.4862 9.87865 48.7137 10.1062C48.7468 10.1393 48.7731 10.1786 48.791 10.2218L48.791 10.2218C48.8089 10.2651 48.8181 10.3114 48.8181 10.3582C48.8181 10.405 48.8089 10.4514 48.791 10.4946Z" fill="url(#paint7_linear_386_903)" stroke="white" stroke-width="1.18648"/>
<path d="M51.2961 17.0577L51.2961 17.0577L51.2993 17.0525C51.3237 17.0117 51.3561 16.9762 51.3944 16.9481C51.4328 16.92 51.4764 16.8999 51.5227 16.8889C51.569 16.878 51.617 16.8764 51.6639 16.8843C51.7108 16.8922 51.7557 16.9095 51.7958 16.935L51.7958 16.935L51.8005 16.938L53.2243 17.8255L54.0927 18.3668L54.131 17.3442L54.1974 15.5693C54.1974 15.5693 54.1974 15.5693 54.1974 15.5693C54.1992 15.5225 54.2101 15.4765 54.2296 15.4339L53.6905 15.1865L54.2296 15.4339C54.2492 15.3914 54.2769 15.3531 54.3112 15.3212C54.3456 15.2894 54.3858 15.2646 54.4297 15.2483C54.4736 15.232 54.5203 15.2245 54.5671 15.2263C54.6139 15.2281 54.6599 15.239 54.7025 15.2585C54.745 15.2781 54.7833 15.3058 54.8152 15.3401C54.847 15.3745 54.8718 15.4147 54.8881 15.4586L55.4443 15.2523L54.8881 15.4586C54.9044 15.5025 54.9119 15.5492 54.9101 15.596L54.7822 18.9893C54.7787 19.0493 54.7601 19.1074 54.7281 19.1582C54.6956 19.2098 54.6504 19.2522 54.5968 19.2814L54.88 19.8026L54.5968 19.2814C54.5431 19.3105 54.483 19.3253 54.422 19.3245C54.3627 19.3237 54.3045 19.3081 54.2528 19.2791L51.4135 17.5472C51.4134 17.5471 51.4133 17.547 51.4131 17.5469C51.3329 17.4975 51.2754 17.4184 51.2535 17.3268C51.2314 17.235 51.2468 17.1382 51.2961 17.0577Z" fill="url(#paint8_linear_386_903)" stroke="white" stroke-width="1.18648"/>
<path d="M49.456 31.7872C44.8287 34.1602 40.6191 35.6362 36.5946 36.3433C35.9159 36.462 35.2325 36.5759 34.5491 36.6898C30.3252 37.3827 25.959 38.1135 22.2097 40.7001C21.5012 41.1874 20.8143 41.7391 20.1487 42.2736C20.1143 42.3012 20.0799 42.3288 20.0455 42.3564M49.456 31.7872L49.7259 32.3155C49.7261 32.3154 49.7264 32.3153 49.7266 32.3152M49.456 31.7872L49.7267 32.3151C49.7267 32.3151 49.7267 32.3151 49.7266 32.3152M49.456 31.7872C50.3388 31.3364 51.2879 30.8143 52.4317 30.1499C53.046 29.8281 53.6981 29.5842 54.3728 29.4238L22.935 41.7785M49.7266 32.3152C45.0583 34.7091 40.792 36.2081 36.6972 36.9276L36.6967 36.9277C36.0154 37.0468 35.3296 37.1611 34.6466 37.2749L34.6451 37.2752C30.4022 37.9712 26.1696 38.689 22.5466 41.1884L22.5459 41.1888C21.8561 41.6633 21.1849 42.2023 20.5149 42.7404C20.4822 42.7666 20.4496 42.7928 20.4169 42.819M49.7266 32.3152C50.6181 31.8598 51.5734 31.3344 52.7182 30.6695C53.2856 30.3735 53.8874 30.1489 54.51 30.0009L54.5101 30.001L54.5203 29.9984C54.9539 29.887 55.3797 29.7473 55.795 29.5802L55.8041 29.5765L55.813 29.5726C57.465 28.8438 58.7519 27.8748 59.231 26.7063L59.2346 26.6974L59.238 26.6884C59.4812 26.0356 59.4678 25.3149 59.2006 24.6716C58.9334 24.0283 58.4322 23.5103 57.7982 23.2219L57.7978 23.2217C56.809 22.7728 55.6221 22.9004 54.6201 23.1494C53.5973 23.4035 52.6376 23.8187 52.0441 24.0765C42.0182 28.4114 29.8677 23.9086 23.0935 17.1577L23.0935 17.1577C19.4117 13.4898 16.9802 8.48764 15.5669 4.89782L15.5623 4.88616L15.5572 4.8747C15.5377 4.83078 15.5273 4.78338 15.5267 4.73534C15.526 4.68731 15.5351 4.63963 15.5533 4.5952C15.5716 4.55075 15.5986 4.51047 15.6329 4.47677C15.6671 4.44307 15.7078 4.41665 15.7525 4.3991C15.7973 4.38154 15.8451 4.37323 15.8931 4.37465C15.9411 4.37606 15.9884 4.38719 16.032 4.40735C16.0756 4.42751 16.1146 4.45629 16.1468 4.49195C16.179 4.52762 16.2036 4.56943 16.2192 4.61486L16.2234 4.62683L16.228 4.63862C17.5864 8.10642 19.9767 13.0423 23.5942 16.6501L23.5948 16.6507C26.8134 19.8523 31.4234 22.5849 36.4314 24.0011C41.4403 25.4176 46.8959 25.5299 51.775 23.4188C54.1092 22.4124 56.2924 21.7467 58.1087 22.5742C58.9155 22.9427 59.5497 23.6075 59.8799 24.4307C60.2095 25.2525 60.211 26.1694 59.8843 26.9922C59.2332 28.5368 57.5381 29.5945 56.1068 30.225C55.6648 30.4038 55.2113 30.5524 54.7494 30.6699C54.1861 30.802 53.64 30.9986 53.1218 31.2559L53.1048 31.2643L53.0884 31.2738C51.9243 31.9478 50.9552 32.4746 50.0436 32.9445C45.2866 35.377 40.9632 36.9009 36.8246 37.6336C36.1393 37.7517 35.4535 37.8652 34.7613 37.979L34.761 37.9791L34.5762 38.0096C30.4662 38.6872 26.4283 39.3529 22.935 41.7785M20.4169 42.819L20.4177 42.8184L20.0455 42.3564M20.4169 42.819L20.0455 42.3564M20.4169 42.819L20.3829 42.8464C19.019 43.945 17.6438 45.0528 16.0443 45.6845L16.0425 45.6852C15.2849 45.9816 14.4804 46.14 13.667 46.1531L13.6575 46.1532V46.1531H13.5549M20.0455 42.3564C18.655 43.4764 17.3404 44.5348 15.8264 45.1328C15.1347 45.4034 14.4002 45.548 13.6575 45.5599H13.5531M13.5549 46.1531L13.5531 45.5599M13.5549 46.1531H13.5531V45.5599M13.5549 46.1531C12.188 46.1572 10.8498 45.7613 9.70513 45.0142M13.5531 45.5599C12.301 45.5636 11.0751 45.2007 10.0269 44.5158M10.0269 44.5158L9.70756 45.0158C9.70675 45.0152 9.70594 45.0147 9.70513 45.0142M10.0269 44.5158C9.25488 44.0227 8.61321 43.3506 8.15632 42.5567C7.69943 41.7627 7.44081 40.8702 7.4024 39.955C7.4024 39.0865 7.08442 18.5414 1.70729 10.9147M10.0269 44.5158L9.70241 45.0124C9.70332 45.013 9.70422 45.0136 9.70513 45.0142M9.70513 45.0142C8.85378 44.4699 8.14614 43.7284 7.64213 42.8525C7.13765 41.9759 6.85209 40.9904 6.80968 39.9798L6.80916 39.9674V39.955C6.80916 39.5379 6.73041 34.2092 5.98235 28.0406C5.60836 24.9566 5.06849 21.6747 4.29161 18.6974C3.51335 15.7147 2.50916 13.0857 1.22906 11.2659M1.22906 11.2659C1.23055 11.2678 1.23202 11.2697 1.23348 11.2716L1.70729 10.9147M1.22906 11.2659C1.22686 11.2628 1.22465 11.2596 1.22244 11.2565L1.70729 10.9147M1.22906 11.2659C1.17359 11.1953 1.09339 11.1482 1.00451 11.1342C0.91325 11.1198 0.819977 11.1415 0.74441 11.1947C0.668843 11.2478 0.616903 11.3283 0.599566 11.419C0.582706 11.5073 0.599861 11.5986 0.647409 11.6746M1.70729 10.9147C1.55905 10.7179 1.3401 10.5865 1.09673 10.5482C0.853354 10.5099 0.604627 10.5677 0.403115 10.7095C0.201603 10.8512 0.0630945 11.0657 0.0168644 11.3077C-0.0293657 11.5497 0.0203046 11.8002 0.155378 12.0062M0.155378 12.0062L0.640045 11.6641C0.642501 11.6676 0.644956 11.6711 0.647409 11.6746M0.155378 12.0062C5.20029 19.1536 5.50403 39.7699 5.50403 40.0024M0.155378 12.0062L0.651508 11.681C0.650118 11.6789 0.648752 11.6767 0.647409 11.6746M0.647409 11.6746C1.96897 13.5518 2.95294 16.2615 3.69484 19.2189C4.4413 22.1944 4.9559 25.4764 5.31082 28.5289C6.00629 34.5102 6.09393 39.6577 6.09718 39.9882M5.50403 40.0024L6.09682 39.9793C6.09694 39.9822 6.09705 39.9852 6.09718 39.9882M5.50403 40.0024C5.55179 41.2252 5.89435 42.4183 6.50253 43.4801C7.11071 44.5419 7.9665 45.4411 8.99703 46.1009C10.2397 46.9176 11.6786 47.3863 13.1639 47.4583M5.50403 40.0024H6.09727C6.09727 39.9997 6.09724 39.995 6.09718 39.9882M6.09718 39.9882C6.14252 41.1123 6.45812 42.209 7.01731 43.1853C7.57798 44.1641 8.36691 44.993 9.31693 45.6013L9.32287 45.6051L9.32285 45.6052C10.473 46.3611 11.8041 46.796 13.1786 46.865M13.1786 46.865H13.1639V47.4583M13.1786 46.865H13.2684H24.184C24.2784 46.865 24.3689 46.8275 24.4357 46.7608C24.5024 46.694 24.5399 46.6035 24.5399 46.5091C24.5399 46.4147 24.5024 46.3241 24.4357 46.2574C24.3689 46.1906 24.2784 46.1531 24.184 46.1531H18.9635H17.0377L18.6296 45.0695C19.3832 44.5565 20.095 43.9834 20.8187 43.4007L20.8505 43.3751C21.5781 42.7892 22.2261 42.2675 22.935 41.7785M13.1786 46.865C13.1833 46.8653 13.1879 46.8655 13.1926 46.8657L13.1639 47.4583M13.1639 47.4583L22.935 41.7785" fill="url(#paint9_linear_386_903)" stroke="white" stroke-width="1.18648"/>
<path d="M11.2006 16.6752L11.2131 16.7757C11.215 16.7913 11.218 16.8068 11.222 16.822L11.2413 16.8959V16.8986L11.2444 16.91C11.2594 16.9659 11.2815 17.0486 11.3085 17.1543C11.3625 17.3658 11.4358 17.6683 11.5134 18.0437C11.6685 18.7937 11.8418 19.8381 11.9136 21.0337C12.0562 23.4082 11.804 26.4639 10.1206 28.9774L10.1116 28.9909L10.1018 29.0039C10.0727 29.0426 10.0518 29.0868 10.0404 29.1339C10.029 29.1809 10.0273 29.2298 10.0354 29.2775C10.0435 29.3252 10.0612 29.3708 10.0876 29.4114C10.1139 29.452 10.1482 29.4869 10.1884 29.5138C10.2287 29.5407 10.274 29.5591 10.3216 29.5679C10.3692 29.5767 10.4181 29.5757 10.4653 29.5649C10.5125 29.5542 10.557 29.534 10.5961 29.5054C10.6352 29.4769 10.6681 29.4407 10.6927 29.399L10.6981 29.39L10.7037 29.3811C11.8831 27.5385 12.5535 25.4164 12.6467 23.2307L13.8237 23.1532C13.976 24.02 14.0812 24.9529 14.1875 25.8956L14.1943 25.9564L14.1952 25.9646L14.1959 25.9729C14.3121 27.3472 14.513 28.7131 14.7975 30.0626L14.8036 30.0915L14.8068 30.1208C15.0918 32.7389 15.0266 36.5665 12.9493 39.6699L12.9402 39.6834L12.9304 39.6965C12.9013 39.7352 12.8804 39.7794 12.869 39.8264C12.8575 39.8735 12.8558 39.9223 12.8639 39.9701C12.8721 40.0178 12.8898 40.0633 12.9161 40.104L12.433 40.4169L12.9161 40.104C12.9424 40.1446 12.9768 40.1794 13.017 40.2063C13.0572 40.2332 13.1025 40.2516 13.1502 40.2605C13.1977 40.2692 13.2466 40.2682 13.2938 40.2575C13.341 40.2468 13.3856 40.2265 13.4247 40.198C13.4638 40.1695 13.4966 40.1332 13.5213 40.0916L13.527 40.0818L13.5332 40.0723C14.6975 38.2642 15.3931 36.1946 15.5571 34.0504L15.6607 32.6964L16.5837 33.6924C17.0726 34.2199 17.6684 34.6371 18.3313 34.9162C18.9942 35.1953 19.709 35.3298 20.428 35.3108L20.4343 35.3106V35.3107C21.2711 35.2974 22.1028 35.1771 22.9091 34.9527L22.9644 34.9373L23.0215 34.9328C24.9549 34.7802 26.8936 35.1534 28.6322 36.0127L28.3694 36.5445M11.2006 16.6752L29.648 36.0965M11.2006 16.6752L11.1554 16.5846C10.0757 14.4156 9.08185 12.2908 8.6436 10.5188M11.2006 16.6752L8.6436 10.5188M28.3694 36.5445L28.6315 36.0124C28.674 36.0333 28.7202 36.0455 28.7674 36.0484C28.8146 36.0512 28.8619 36.0446 28.9065 36.029C28.9512 36.0134 28.9923 35.989 29.0274 35.9573L29.4249 36.3976L29.0274 35.9573C29.0625 35.9256 29.0909 35.8872 29.111 35.8444L29.648 36.0965M28.3694 36.5445C26.7266 35.7326 24.8949 35.3801 23.0682 35.5242C22.2131 35.7622 21.3311 35.8898 20.4437 35.9038C19.6404 35.9251 18.8418 35.7748 18.1011 35.463C17.5926 35.2489 17.1195 34.9621 16.6961 34.6126M28.3694 36.5445L16.6961 34.6126M29.648 36.0965L29.111 35.8444C29.1311 35.8016 29.1425 35.7552 29.1445 35.7079C29.1465 35.6606 29.139 35.6135 29.1225 35.5691C29.106 35.5248 29.0809 35.4842 29.0485 35.4496C29.0162 35.4151 28.9773 35.3874 28.9341 35.3681L28.9272 35.365L28.9272 35.365C28.2649 35.0588 27.5783 34.8081 26.8745 34.6157L25.2928 34.1831L26.7852 33.5035C26.8603 33.4693 26.9348 33.4355 27.0089 33.4018C27.4631 33.1953 27.8991 32.9971 28.3284 32.7885L28.3368 32.7844L28.3368 32.7845L28.7639 32.5851L28.8037 32.5666L28.8458 32.5541C29.4829 32.3647 32.4253 31.6894 36.2168 33.9264L36.2349 33.937L36.2521 33.9489C36.2925 33.9768 36.3382 33.996 36.3864 34.0053L36.2736 34.5877M29.648 36.0965C29.7016 35.9824 29.732 35.8586 29.7372 35.7326C29.7425 35.6066 29.7225 35.4808 29.6786 35.3625C29.6347 35.2443 29.5676 35.136 29.4814 35.0439C29.3951 34.9519 29.2913 34.878 29.1762 34.8265C28.7544 34.6315 28.3233 34.4581 27.8843 34.3068C27.7557 34.3656 27.6268 34.4242 27.4978 34.4829C27.4242 34.5163 27.3505 34.5498 27.2769 34.5833L27.031 34.0434L27.1875 33.4712C27.4101 33.5321 27.6311 33.5983 27.8503 33.6698C28.0986 33.5554 28.3443 33.4404 28.5877 33.3221L29.0148 33.1227C29.5416 32.9661 32.3037 32.3064 35.9154 34.4373C36.0232 34.5116 36.1451 34.5628 36.2736 34.5877M36.2736 34.5877L36.3864 34.0053C36.4346 34.0146 36.4842 34.0139 36.5321 34.0031C36.58 33.9924 36.6251 33.9718 36.6647 33.9428C36.7043 33.9137 36.7374 33.8768 36.762 33.8344C36.7866 33.7919 36.8022 33.7448 36.8078 33.696C36.8133 33.6472 36.8087 33.5979 36.7942 33.551C36.7798 33.5041 36.7558 33.4606 36.7237 33.4235L37.1731 33.0362M36.2736 34.5877C36.4021 34.6126 36.5344 34.6106 36.6621 34.5819C36.7898 34.5533 36.9102 34.4985 37.0157 34.421C37.1213 34.3436 37.2096 34.2451 37.2753 34.1319C37.3409 34.0186 37.3824 33.893 37.3972 33.763C37.412 33.6329 37.3997 33.5012 37.3611 33.3762C37.3226 33.2511 37.2585 33.1353 37.1731 33.0362M16.6961 34.6126C16.7134 34.4558 16.7281 34.2985 16.7401 34.1409L16.1486 34.0956L15.7135 34.4989C15.8275 34.6219 15.9462 34.74 16.0692 34.853C15.8063 36.8241 15.1119 38.7164 14.0319 40.3935C13.9663 40.5046 13.8786 40.6011 13.7743 40.6772C13.67 40.7533 13.5513 40.8073 13.4255 40.836C13.2996 40.8646 13.1692 40.8673 13.0423 40.8438C12.9154 40.8203 12.7946 40.7712 12.6873 40.6995C12.5799 40.6277 12.4884 40.5348 12.4182 40.4265C12.348 40.3182 12.3007 40.1967 12.2791 40.0694C12.2575 39.9421 12.262 39.8118 12.2925 39.6864C12.323 39.5609 12.3787 39.443 12.4563 39.3399C14.4164 36.4117 14.497 32.7573 14.217 30.185C13.9275 28.8115 13.723 27.4215 13.6048 26.0228L13.599 25.9713C13.5821 25.8211 13.5652 25.6716 13.5483 25.5231C13.7044 24.7877 13.7998 24.0379 13.8321 23.2812L13.2394 23.256L12.6551 23.3587C12.7726 24.0267 12.8613 24.7409 12.9477 25.4934C12.6201 26.982 12.0315 28.4072 11.2034 29.7009C11.1377 29.812 11.05 29.9086 10.9457 29.9847C10.8415 30.0607 10.7228 30.1148 10.5969 30.1434C10.471 30.172 10.3407 30.1747 10.2137 30.1512C10.0868 30.1278 9.96599 30.0787 9.85868 30.0069C9.75138 29.9352 9.65984 29.8423 9.58966 29.7339C9.51948 29.6256 9.47213 29.5041 9.45051 29.3768C9.4289 29.2496 9.43346 29.1193 9.46393 28.9938C9.4944 28.8684 9.55014 28.7505 9.62773 28.6473C12.5892 24.2251 10.8913 17.8848 10.6707 17.0611C10.6562 17.007 10.6481 16.9767 10.6481 16.9724C10.6375 16.9318 10.6295 16.8906 10.6244 16.849C9.54705 14.6848 8.52193 12.5017 8.06632 10.6555L16.6961 34.6126ZM8.6436 10.5188C8.62351 10.4276 8.63993 10.3322 8.68943 10.253C8.73955 10.1728 8.81946 10.1158 8.9116 10.0946C9.00374 10.0733 9.10055 10.0895 9.18074 10.1396C9.26038 10.1894 9.31715 10.2686 9.33874 10.3599C9.74572 12.1926 10.9522 14.5968 12.0005 16.6859C12.0568 16.7981 12.1127 16.9095 12.168 17.0198L12.1681 17.0201C12.8161 18.3113 13.4132 19.5063 13.8402 20.5319C14.4608 22.0232 14.6784 23.9291 14.8946 25.8794L14.8947 25.8806L14.904 25.9634C15.0473 27.2328 15.1987 28.574 15.4845 29.7903C15.7754 31.0286 16.2207 32.2097 17.0009 33.0851L8.6436 10.5188ZM37.1731 33.0362L36.7237 33.4235C36.6917 33.3863 36.6523 33.3561 36.608 33.3349L36.5841 33.3234L36.5613 33.3098C35.5471 32.7065 34.4532 32.2488 33.3116 31.9502L31.1934 31.396L33.3016 30.805C35.903 30.0758 38.6067 29.7797 41.3042 29.9287M37.1731 33.0362C37.0876 32.937 36.9826 32.8566 36.8646 32.8C36.1272 32.3614 35.3496 31.9962 34.543 31.7093C34.2346 31.7824 33.9275 31.8618 33.6219 31.9475L33.4617 31.3762L33.6119 30.8023C33.9369 30.8873 34.2584 30.9842 34.5758 31.0925C36.7734 30.5885 39.0328 30.3959 41.2878 30.522M41.3042 29.9287L17.001 33.0851C17.2559 33.3717 17.5469 33.624 17.8667 33.8357L18.4589 34.2278L18.7392 33.5751C19.3203 32.2222 20.2701 31.06 21.4803 30.2212C22.6905 29.3825 24.1121 28.901 25.5829 28.8318L25.5829 28.8319L25.5965 28.831C25.6434 28.8277 25.6905 28.8337 25.7351 28.8486C25.7797 28.8635 25.821 28.8871 25.8565 28.918L26.2457 28.4702L25.8565 28.918C25.892 28.9488 25.9211 28.9864 25.9421 29.0285C25.9631 29.0706 25.9756 29.1164 25.9789 29.1633L26.5707 29.1219M41.3042 29.9287H42.1847C42.2791 29.9287 42.3697 29.8912 42.4364 29.8245C42.5032 29.7577 42.5407 29.6672 42.5407 29.5728C42.5407 29.4784 42.5032 29.3878 42.4364 29.3211C42.3697 29.2543 42.2791 29.2168 42.1847 29.2168H41.3257H41.3087L41.2917 29.2159C37.4835 28.997 33.6763 29.6633 30.1687 31.1624L30.1686 31.1624C29.6561 31.3814 29.1179 31.6294 28.5583 31.8902L28.4391 31.9457H28.3801M41.3042 29.9287C41.3098 29.929 41.3153 29.9293 41.3209 29.9296L41.2878 30.522M41.3042 29.9287H41.2878V30.522M41.3042 29.9287L26.5707 29.1219M41.2878 30.522H42.1847C42.4365 30.522 42.6779 30.422 42.8559 30.244C43.0339 30.0659 43.1339 29.8245 43.1339 29.5728C43.1339 29.321 43.0339 29.0796 42.8559 28.9016C42.6779 28.7236 42.4365 28.6236 42.1847 28.6236H41.3257C37.426 28.3995 33.5274 29.0818 29.9355 30.6169C29.4135 30.8399 28.8677 31.0915 28.3077 31.3525H28.2507M28.2507 31.3525C28.1859 31.3758 28.1239 31.406 28.0656 31.4427L27.7571 31.5851M28.2507 31.3525V31.7366V31.8437V31.9457H28.2978H28.3077H28.3801M28.2507 31.3525L28.3077 31.5111L28.4512 31.9108C28.4269 31.9196 28.4036 31.9309 28.3818 31.9447L28.3801 31.9457M27.7571 31.5851C26.1224 32.4351 24.4169 33.1417 22.66 33.697H22.6173M27.7571 31.5851L28.0058 32.1237L28.0183 32.1179M27.7571 31.5851L28.0308 32.1114C28.0267 32.1136 28.0225 32.1157 28.0183 32.1179M22.6173 33.697C21.971 33.8833 21.3036 33.9818 20.6329 33.9909C20.6009 34.0595 20.57 34.1294 20.5404 34.2005L19.9928 33.9722L20.0353 33.3805C20.1137 33.3862 20.1922 33.3904 20.2708 33.3934C21.4658 31.2121 23.7666 30.2732 25.6879 30.1375C25.8126 30.1288 25.9343 30.0956 26.0461 30.0399C26.1579 29.9841 26.2577 29.9069 26.3396 29.8126M22.6173 33.697V34.2902H22.66H22.6995M22.6173 33.697L22.66 33.8452L22.7816 34.267C22.7543 34.2749 22.7269 34.2826 22.6995 34.2902M26.3396 29.8126C26.4216 29.7182 26.4842 29.6087 26.5238 29.4902C26.5635 29.3717 26.5794 29.2466 26.5707 29.1219M26.3396 29.8126L25.8919 29.4234C25.9228 29.3879 25.9463 29.3466 25.9612 29.302C25.9762 29.2574 25.9822 29.2103 25.9789 29.1633L26.5707 29.1219M26.3396 29.8126L25.8919 29.4234C25.861 29.4589 25.8235 29.488 25.7814 29.509C25.7393 29.53 25.6934 29.5425 25.6465 29.5458L25.6461 29.5458C23.4215 29.7029 20.6414 30.8742 19.4452 33.744L19.128 34.505L19.9504 34.564C20.8759 34.6303 21.8057 34.5377 22.6995 34.2902M22.6995 34.2902H22.7515L22.8388 34.2626C24.624 33.6985 26.3569 32.9809 28.0183 32.1179M28.0183 32.1179L28.3142 31.9813L28.3492 31.9652L28.3801 31.9457" fill="url(#paint10_linear_386_903)" stroke="white" stroke-width="1.18648"/>
<path d="M20.2642 20.5652L20.2559 20.5614L20.2475 20.558C17.8836 19.5795 16.1868 17.2705 15.057 15.0662C13.937 12.8812 13.4317 10.9128 13.3966 10.7727L13.3966 10.7727L13.3956 10.7686C13.3719 10.6767 13.3857 10.5793 13.4339 10.4976C13.4821 10.4159 13.5607 10.3567 13.6526 10.3331C13.7444 10.3094 13.8419 10.3232 13.9235 10.3714C14.0052 10.4196 14.0644 10.4982 14.0881 10.5901L14.0945 10.6151L14.1031 10.6395C14.097 10.6221 14.5845 12.483 15.5933 14.5193C16.5937 16.5388 18.1898 18.9169 20.5207 19.9014L20.5295 19.905L20.5383 19.9085C20.5827 19.9256 20.6232 19.9514 20.6575 19.9844C20.6917 20.0174 20.719 20.057 20.7377 20.1007L21.2832 19.8676L20.7377 20.1007C20.7564 20.1445 20.7661 20.1915 20.7663 20.2391C20.7665 20.2867 20.7572 20.3338 20.7389 20.3777C20.7206 20.4216 20.6936 20.4614 20.6597 20.4947C20.6257 20.528 20.5854 20.5542 20.5412 20.5717C20.4969 20.5892 20.4496 20.5976 20.402 20.5965C20.3545 20.5953 20.3076 20.5847 20.2642 20.5652Z" fill="url(#paint11_linear_386_903)" stroke="white" stroke-width="1.18648"/>
<path d="M46.3715 29.4257C46.3715 29.6223 46.2122 29.7817 46.0156 29.7817C45.819 29.7817 45.6596 29.6223 45.6596 29.4257C45.6596 29.2292 45.819 29.0698 46.0156 29.0698C46.2122 29.0698 46.3715 29.2292 46.3715 29.4257Z" fill="url(#paint12_linear_386_903)" stroke="white" stroke-width="1.18648"/>
<path d="M14.5727 0.949184C14.5727 1.14577 14.4133 1.30513 14.2168 1.30513C14.0202 1.30513 13.8608 1.14577 13.8608 0.949184C13.8608 0.752602 14.0202 0.59324 14.2168 0.59324C14.4133 0.59324 14.5727 0.752602 14.5727 0.949184Z" fill="url(#paint13_linear_386_903)" stroke="white" stroke-width="1.18648"/>
<defs>
<linearGradient id="paint0_linear_386_903" x1="22.4463" y1="7.1625" x2="20.2492" y2="5.94592" gradientUnits="userSpaceOnUse">
<stop stop-color="#55097B"/>
<stop offset="1" stop-color="#F00045"/>
</linearGradient>
<linearGradient id="paint1_linear_386_903" x1="45.0785" y1="7.69417" x2="42.9304" y2="6.54655" gradientUnits="userSpaceOnUse">
<stop stop-color="#55097B"/>
<stop offset="1" stop-color="#F00045"/>
</linearGradient>
<linearGradient id="paint2_linear_386_903" x1="26.8066" y1="5.27664" x2="24.6813" y2="3.97178" gradientUnits="userSpaceOnUse">
<stop stop-color="#55097B"/>
<stop offset="1" stop-color="#F00045"/>
</linearGradient>
<linearGradient id="paint3_linear_386_903" x1="36.2735" y1="4.44523" x2="34.187" y2="3.01124" gradientUnits="userSpaceOnUse">
<stop stop-color="#55097B"/>
<stop offset="1" stop-color="#F00045"/>
</linearGradient>
<linearGradient id="paint4_linear_386_903" x1="31.478" y1="4.34612" x2="29.4325" y2="2.91497" gradientUnits="userSpaceOnUse">
<stop stop-color="#55097B"/>
<stop offset="1" stop-color="#F00045"/>
</linearGradient>
<linearGradient id="paint5_linear_386_903" x1="40.8417" y1="5.61021" x2="38.7106" y2="4.33423" gradientUnits="userSpaceOnUse">
<stop stop-color="#55097B"/>
<stop offset="1" stop-color="#F00045"/>
</linearGradient>
<linearGradient id="paint6_linear_386_903" x1="51.811" y1="14.2972" x2="49.6385" y2="13.3573" gradientUnits="userSpaceOnUse">
<stop stop-color="#55097B"/>
<stop offset="1" stop-color="#F00045"/>
</linearGradient>
<linearGradient id="paint7_linear_386_903" x1="48.7754" y1="10.6259" x2="46.5616" y2="9.55333" gradientUnits="userSpaceOnUse">
<stop stop-color="#55097B"/>
<stop offset="1" stop-color="#F00045"/>
</linearGradient>
<linearGradient id="paint8_linear_386_903" x1="54.3163" y1="18.514" x2="50.0396" y2="16.6347" gradientUnits="userSpaceOnUse">
<stop stop-color="#55097B"/>
<stop offset="1" stop-color="#F00045"/>
</linearGradient>
<linearGradient id="paint9_linear_386_903" x1="45.8669" y1="35.8566" x2="1.61082" y2="6.41562" gradientUnits="userSpaceOnUse">
<stop stop-color="#55097B"/>
<stop offset="1" stop-color="#F00045"/>
</linearGradient>
<linearGradient id="paint10_linear_386_903" x1="34.5492" y1="32.5276" x2="5.87228" y2="17.1762" gradientUnits="userSpaceOnUse">
<stop stop-color="#55097B"/>
<stop offset="1" stop-color="#F00045"/>
</linearGradient>
<linearGradient id="paint11_linear_386_903" x1="19.2634" y1="18.1454" x2="11.2767" y2="15.2883" gradientUnits="userSpaceOnUse">
<stop stop-color="#55097B"/>
<stop offset="1" stop-color="#F00045"/>
</linearGradient>
<linearGradient id="paint12_linear_386_903" x1="46.5004" y1="29.8707" x2="44.8763" y2="29.0936" gradientUnits="userSpaceOnUse">
<stop stop-color="#55097B"/>
<stop offset="1" stop-color="#F00045"/>
</linearGradient>
<linearGradient id="paint13_linear_386_903" x1="14.7015" y1="1.39411" x2="13.0775" y2="0.616994" gradientUnits="userSpaceOnUse">
<stop stop-color="#55097B"/>
<stop offset="1" stop-color="#F00045"/>
</linearGradient>
</defs>
</svg>
