<svg width="60" height="48" viewBox="0 0 60 48" fill="none" xmlns="http://www.w3.org/2000/svg">
<path d="M19.2546 20.7724H19.2545H8.39873H8.39682H7.43423L7.86688 21.6323C9.29053 24.4617 11.1113 27.0731 13.2739 29.3873C17.1855 33.7594 22.1225 37.8642 26.4437 41.457L26.4642 41.474L26.4643 41.4741C28.2652 42.9706 29.9722 44.3901 31.4486 45.6993L31.8422 46.0483L32.2358 45.6993C33.7128 44.3895 35.4191 42.9706 37.2201 41.4741L37.2202 41.474L37.2407 41.4569C41.5635 37.8628 46.5026 33.7563 50.4148 29.3824L50.4148 29.3824C54.8287 24.4472 57.152 20.0445 57.3403 15.944V15.9439C57.5033 12.3862 56.0586 9.17602 53.0375 6.15555L53.0375 6.15551L53.0318 6.14994C50.4098 3.59826 46.8874 2.18355 43.2289 2.21279C41.1047 2.21734 39.0106 2.71632 37.1126 3.67022C35.2141 4.6244 33.5638 6.00755 32.2924 7.71011L32.2911 7.71188C32.2392 7.78196 32.1716 7.83891 32.0937 7.87815C32.0158 7.91738 31.9297 7.93782 31.8425 7.93782C31.7553 7.93782 31.6693 7.91739 31.5913 7.87815C31.5134 7.83891 31.4458 7.78197 31.3939 7.71187L31.3925 7.7101C30.1201 6.00605 28.4679 4.622 26.5673 3.66776C24.6672 2.71381 22.571 2.21565 20.4449 2.21278C16.7897 2.18568 13.2711 3.60029 10.6519 6.14999L10.6519 6.14995L10.6462 6.1556C7.6282 9.17361 6.18294 12.3864 6.3466 15.944L6.34676 15.9471C6.4038 17.0636 6.60113 18.1686 6.9341 19.2359L7.06406 19.6525H7.50042H18.395H18.8378L18.9637 19.2279L22.2154 8.26035L22.2156 8.2597C22.251 8.1398 22.3255 8.03521 22.4273 7.9626L22.0827 7.47968L22.4273 7.9626C22.529 7.88999 22.6522 7.85354 22.7771 7.85908C22.902 7.86461 23.0214 7.9118 23.1164 7.99312C23.2113 8.07444 23.2763 8.18522 23.3009 8.30777L23.301 8.30826L26.8746 25.9931L28.0375 25.993L29.2246 20.1173C29.2246 20.1172 29.2247 20.1172 29.2247 20.1171C29.2504 19.9904 29.3191 19.8765 29.4191 19.7946L29.0433 19.3355L29.4191 19.7946C29.5192 19.7127 29.6445 19.6679 29.7738 19.6677L47.6957 19.6595C47.8398 19.6644 47.9766 19.7247 48.0774 19.8279L48.5018 19.4134L48.0774 19.8279C48.1797 19.9326 48.2369 20.0731 48.2369 20.2194C48.2369 20.3657 48.1797 20.5063 48.0774 20.6109L48.5018 21.0255L48.0774 20.6109C47.9765 20.7142 47.8397 20.7745 47.6955 20.7794L30.7178 20.7826L30.2325 20.7826L30.1364 21.2582L28.0052 31.8004L28.0051 31.8013C27.9796 31.928 27.9111 32.0421 27.811 32.1241C27.711 32.206 27.5857 32.2508 27.4564 32.2508C27.3271 32.2508 27.2017 32.206 27.1017 32.1241C27.0017 32.0421 26.9331 31.928 26.9077 31.8013L26.9075 31.8004L23.1213 13.0726L21.9711 13.0215L19.7917 20.3715C19.7573 20.4873 19.6865 20.5889 19.5897 20.6611C19.4929 20.7334 19.3753 20.7724 19.2546 20.7724ZM32.3605 8.40798C32.5212 8.32706 32.6607 8.20961 32.7678 8.06506L20.4423 2.80602C22.4769 2.80848 24.4829 3.28506 26.3011 4.19794C28.1194 5.11081 29.6999 6.43487 30.9172 8.06506C31.0243 8.20961 31.1638 8.32706 31.3245 8.40798C31.4852 8.48891 31.6626 8.53106 31.8425 8.53106C32.0224 8.53106 32.1998 8.48891 32.3605 8.40798ZM1.18057 20.7724V20.7722L1.16665 20.7726C1.09199 20.7743 1.01773 20.7611 0.948241 20.7338C0.878757 20.7064 0.815439 20.6654 0.762014 20.6132C0.708589 20.5611 0.666137 20.4987 0.637154 20.4299C0.608171 20.3611 0.59324 20.2871 0.59324 20.2124C0.59324 20.1378 0.608171 20.0638 0.637154 19.995C0.666138 19.9262 0.708591 19.8638 0.762014 19.8117C0.815433 19.7595 0.87875 19.7185 0.948241 19.6911C1.01774 19.6638 1.09199 19.6506 1.16665 19.6523L1.16665 19.6525H1.18057H5.1058H5.87649L5.67929 18.9075C5.4272 17.9551 5.27593 16.9788 5.22796 15.9948C5.05454 12.2127 6.57939 8.64223 9.85469 5.36895C12.6886 2.60774 16.4954 1.07278 20.4522 1.09605L20.4543 1.09605C22.5178 1.10075 24.5575 1.5361 26.4431 2.37425C28.3287 3.2124 30.0185 4.4349 31.4046 5.96353L31.8438 6.44794L32.2833 5.96379C33.6716 4.43446 35.3636 3.21145 37.2512 2.37286C39.1388 1.53428 41.1805 1.09856 43.246 1.09352L43.2481 1.0935C47.2014 1.0701 51.0046 2.60523 53.8339 5.36622C57.1091 8.64241 58.6345 12.2139 58.4608 15.9956C58.2654 20.2475 55.9595 24.8646 51.2515 30.1284L51.6937 30.5239L51.2515 30.1284C47.2883 34.5599 42.3406 38.6751 37.9383 42.3347L37.9383 42.3348L37.9296 42.342C35.8347 44.0837 33.8418 45.7407 32.2224 47.2195C32.1192 47.3137 31.9845 47.366 31.8447 47.366C31.705 47.366 31.5702 47.3137 31.467 47.2195C29.8471 45.7407 27.8542 44.0838 25.7593 42.3421L25.7505 42.3348L25.7504 42.3347C21.3477 38.6752 16.4024 34.5599 12.4372 30.1283C9.56419 26.9171 7.58187 23.941 6.43093 21.1402L6.27981 20.7724H5.88221H1.18057Z" fill="url(#paint0_linear_386_892)" stroke="white" stroke-width="1.18648"/>
<defs>
<linearGradient id="paint0_linear_386_892" x1="44.6174" y1="35.3529" x2="-1.22543" y2="8.05124" gradientUnits="userSpaceOnUse">
<stop stop-color="#55097B"/>
<stop offset="1" stop-color="#F00045"/>
</linearGradient>
</defs>
</svg>
