<svg width="1242" height="848" viewBox="0 0 1242 848" fill="none" xmlns="http://www.w3.org/2000/svg">
<rect x="706.755" y="535.601" width="161" height="136" transform="rotate(13.2424 706.755 535.601)" stroke="url(#paint0_linear_57_23)"/>
<path d="M1034.5 181L1023 223L1235 269.5M987.5 181C985.167 192 980.2 213.9 979 213.5C977.8 213.1 877.833 191.667 828 181M722 517L893 557L861 688M908.5 690.5L939 568.5L1235 637M1235 601.5L1057.5 560L1078.5 468L1235 505.5M1238 492L1083.5 452L1112.5 333.5L1241.5 365.5M1238 340L1117 311.5L1125 281L1238 305.5M726 191L837 217.5L790 390L680 361L726 191ZM719.5 390L784 405.5L761.5 492L698 474.5L719.5 390Z" stroke="url(#paint1_linear_57_23)"/>
<path d="M450 170.5L419.482 271.641L211.878 208.341M490.976 193.521C487.622 204.254 461.254 284.671 462.496 284.91C463.738 285.149 561.39 315.428 610.061 330.537L650.925 186M560 679.5L369.223 626.507L332.956 756.39M290.319 735.304L323.486 614.002L31.8725 528.738M49.2608 497.788L224.338 548.548L251.092 458.054L96.2828 414.092M100.28 400.853L254.57 441.656L287.329 324.14L159.19 288.852M174.976 267.899L294.182 302.755L302.147 272.246L191.63 238.257M693 393L583.247 361.734L540.82 531.362L650.925 559.959L693 393ZM602.283 565.894L538.458 547.814L515.706 634.248L579.639 650.094L602.283 565.894Z" stroke="url(#paint2_linear_57_23)"/>
<path d="M778 493L855 222.5L971 247.5L900.5 524L778 493Z" stroke="white"/>
<path d="M1009 286L1016.5 256L1108 277L1100.5 307L1009 286Z" stroke="white"/>
<path d="M973.5 424.5L1002.5 308L1098.5 329.5L1069 448L973.5 424.5Z" stroke="white"/>
<path d="M946.5 532.5L969.5 441L1065.5 464L1042.5 556L946.5 532.5Z" stroke="white"/>
<path d="M1033.51 575.778L1036.57 563.37L1039.1 563.993L1036.56 574.293L1042.84 575.841L1042.32 577.949L1033.51 575.778ZM1044.71 573.595C1044.9 572.798 1045.29 572.076 1045.87 571.427C1046.44 570.779 1047.14 570.347 1047.95 570.131C1048.77 569.917 1049.62 569.919 1050.51 570.138C1051.88 570.476 1052.9 571.199 1053.55 572.308C1054.21 573.412 1054.37 574.644 1054.03 576.003C1053.7 577.374 1052.97 578.403 1051.86 579.088C1050.76 579.77 1049.54 579.945 1048.19 579.614C1047.36 579.409 1046.61 579.026 1045.95 578.464C1045.29 577.903 1044.86 577.213 1044.64 576.394C1044.43 575.569 1044.45 574.636 1044.71 573.595ZM1047.13 574.329C1046.91 575.228 1046.96 575.969 1047.26 576.552C1047.57 577.135 1048.04 577.503 1048.67 577.658C1049.29 577.812 1049.87 577.702 1050.41 577.328C1050.96 576.955 1051.34 576.314 1051.57 575.404C1051.78 574.516 1051.74 573.781 1051.43 573.198C1051.13 572.616 1050.66 572.248 1050.04 572.094C1049.41 571.94 1048.83 572.049 1048.28 572.422C1047.74 572.794 1047.35 573.43 1047.13 574.329ZM1057.09 581.591L1054.69 581L1056.93 571.937L1059.16 572.486L1058.84 573.775C1059.37 573.26 1059.81 572.943 1060.16 572.824C1060.51 572.706 1060.88 572.695 1061.27 572.791C1061.82 572.925 1062.31 573.206 1062.74 573.632L1061.48 575.54C1061.14 575.179 1060.8 574.955 1060.45 574.87C1060.12 574.787 1059.81 574.811 1059.53 574.941C1059.25 575.065 1058.98 575.353 1058.73 575.802C1058.48 576.254 1058.16 577.25 1057.78 578.792L1057.09 581.591ZM1067.57 581.114L1069.86 582.104C1069.33 582.904 1068.68 583.453 1067.9 583.749C1067.13 584.042 1066.25 584.065 1065.25 583.82C1063.68 583.431 1062.64 582.629 1062.13 581.413C1061.74 580.44 1061.7 579.326 1062.01 578.068C1062.38 576.567 1063.06 575.489 1064.05 574.834C1065.05 574.175 1066.15 573.993 1067.35 574.289C1068.7 574.621 1069.65 575.33 1070.21 576.415C1070.77 577.495 1070.81 578.949 1070.32 580.778L1064.31 579.297C1064.15 580.013 1064.21 580.615 1064.48 581.104C1064.75 581.588 1065.17 581.898 1065.72 582.034C1066.09 582.127 1066.44 582.102 1066.74 581.96C1067.05 581.819 1067.32 581.536 1067.57 581.114ZM1068.3 578.724C1068.45 578.025 1068.4 577.455 1068.15 577.012C1067.9 576.564 1067.53 576.28 1067.04 576.159C1066.52 576.03 1066.04 576.114 1065.6 576.411C1065.17 576.708 1064.87 577.184 1064.72 577.84L1068.3 578.724ZM1073.39 575.996L1075.6 576.541L1075.3 577.778C1076.32 577.011 1077.38 576.763 1078.48 577.032C1079.06 577.175 1079.53 577.419 1079.9 577.763C1080.27 578.107 1080.53 578.555 1080.68 579.105C1081.2 578.72 1081.72 578.465 1082.24 578.339C1082.76 578.214 1083.28 578.216 1083.8 578.345C1084.47 578.509 1085 578.784 1085.39 579.171C1085.78 579.552 1086.03 580.032 1086.13 580.612C1086.2 581.039 1086.13 581.686 1085.91 582.55L1084.49 588.345L1082.09 587.753L1083.36 582.573C1083.59 581.675 1083.65 581.074 1083.55 580.772C1083.41 580.376 1083.11 580.121 1082.65 580.007C1082.31 579.924 1081.97 579.949 1081.63 580.081C1081.28 580.213 1080.99 580.462 1080.76 580.828C1080.53 581.188 1080.32 581.795 1080.11 582.648L1079.03 587L1076.63 586.409L1077.86 581.442C1078.08 580.561 1078.17 579.981 1078.15 579.704C1078.13 579.427 1078.04 579.204 1077.89 579.034C1077.75 578.865 1077.52 578.743 1077.21 578.667C1076.84 578.576 1076.49 578.593 1076.14 578.719C1075.8 578.846 1075.51 579.08 1075.29 579.424C1075.07 579.768 1074.85 580.376 1074.64 581.246L1073.55 585.649L1071.16 585.058L1073.39 575.996ZM1091.69 590.12L1094.77 577.61L1097.3 578.233L1094.21 590.743L1091.69 590.12ZM1098.78 582.255L1101.01 582.806L1100.68 584.137C1101.09 583.754 1101.57 583.481 1102.14 583.318C1102.7 583.156 1103.29 583.149 1103.89 583.298C1104.94 583.557 1105.73 584.19 1106.26 585.196C1106.79 586.201 1106.88 587.441 1106.51 588.915C1106.14 590.428 1105.48 591.514 1104.53 592.174C1103.59 592.828 1102.59 593.025 1101.54 592.766C1101.04 592.642 1100.6 592.43 1100.24 592.13C1099.89 591.832 1099.55 591.385 1099.22 590.791L1098.09 595.356L1095.69 594.765L1098.78 582.255ZM1100.07 587.217C1099.82 588.236 1099.84 589.039 1100.12 589.628C1100.4 590.211 1100.84 590.574 1101.42 590.717C1101.97 590.855 1102.49 590.747 1102.97 590.395C1103.45 590.036 1103.82 589.348 1104.07 588.33C1104.3 587.38 1104.29 586.627 1104.02 586.073C1103.75 585.518 1103.34 585.171 1102.77 585.032C1102.19 584.888 1101.64 584.995 1101.14 585.355C1100.65 585.709 1100.29 586.33 1100.07 587.217ZM1107.09 591.174L1109.58 591.401C1109.57 591.892 1109.69 592.299 1109.94 592.621C1110.2 592.937 1110.61 593.165 1111.17 593.303C1111.79 593.456 1112.29 593.458 1112.65 593.307C1112.9 593.2 1113.06 593.012 1113.13 592.745C1113.17 592.563 1113.15 592.398 1113.07 592.251C1112.98 592.107 1112.74 591.936 1112.34 591.737C1110.52 590.833 1109.39 590.142 1108.95 589.661C1108.36 588.995 1108.17 588.227 1108.38 587.357C1108.58 586.571 1109.05 585.988 1109.8 585.606C1110.55 585.224 1111.58 585.194 1112.88 585.515C1114.12 585.821 1114.99 586.25 1115.5 586.803C1116 587.355 1116.27 588.055 1116.3 588.902L1113.94 588.762C1113.93 588.386 1113.81 588.07 1113.58 587.815C1113.36 587.561 1113 587.373 1112.5 587.249C1111.87 587.094 1111.39 587.07 1111.08 587.179C1110.87 587.26 1110.73 587.399 1110.69 587.598C1110.64 587.769 1110.69 587.934 1110.82 588.093C1110.99 588.305 1111.68 588.714 1112.89 589.318C1114.09 589.924 1114.9 590.499 1115.3 591.045C1115.7 591.595 1115.8 592.252 1115.61 593.014C1115.41 593.845 1114.89 594.473 1114.04 594.899C1113.2 595.325 1112.1 595.371 1110.74 595.036C1109.51 594.731 1108.59 594.24 1107.99 593.561C1107.4 592.884 1107.1 592.088 1107.09 591.174ZM1122.99 597.837L1123.32 596.481C1122.87 596.883 1122.34 597.157 1121.74 597.302C1121.13 597.449 1120.53 597.449 1119.93 597.302C1119.33 597.152 1118.81 596.883 1118.39 596.497C1117.98 596.11 1117.72 595.648 1117.62 595.111C1117.53 594.575 1117.58 593.879 1117.79 593.026L1119.21 587.292L1121.6 587.883L1120.58 592.047C1120.26 593.321 1120.11 594.114 1120.13 594.425C1120.15 594.732 1120.25 595 1120.45 595.228C1120.64 595.45 1120.91 595.606 1121.27 595.694C1121.68 595.795 1122.08 595.775 1122.45 595.633C1122.84 595.485 1123.13 595.261 1123.33 594.961C1123.53 594.654 1123.79 593.853 1124.11 592.556L1125.05 588.733L1127.45 589.324L1125.22 598.386L1122.99 597.837ZM1129.76 589.894L1131.97 590.439L1131.67 591.676C1132.7 590.91 1133.76 590.661 1134.85 590.931C1135.43 591.074 1135.9 591.317 1136.27 591.661C1136.64 592.005 1136.9 592.453 1137.05 593.004C1137.57 592.618 1138.09 592.363 1138.61 592.238C1139.13 592.112 1139.65 592.114 1140.17 592.243C1140.84 592.407 1141.37 592.683 1141.76 593.07C1142.16 593.451 1142.4 593.931 1142.5 594.51C1142.57 594.938 1142.5 595.584 1142.29 596.449L1140.86 602.243L1138.46 601.652L1139.74 596.472C1139.96 595.573 1140.02 594.972 1139.92 594.67C1139.78 594.274 1139.48 594.019 1139.02 593.906C1138.68 593.823 1138.34 593.847 1138 593.979C1137.65 594.111 1137.36 594.36 1137.13 594.726C1136.91 595.086 1136.69 595.693 1136.48 596.546L1135.4 600.899L1133.01 600.307L1134.23 595.341C1134.45 594.459 1134.55 593.88 1134.52 593.603C1134.5 593.326 1134.42 593.102 1134.26 592.932C1134.12 592.763 1133.89 592.641 1133.58 592.565C1133.22 592.474 1132.86 592.492 1132.51 592.618C1132.17 592.744 1131.88 592.979 1131.66 593.322C1131.44 593.667 1131.23 594.274 1131.01 595.145L1129.93 599.548L1127.53 598.957L1129.76 589.894ZM1148.5 599.809L1151.02 600.176C1150.96 601.038 1151.11 601.717 1151.46 602.215C1151.82 602.714 1152.39 603.058 1153.16 603.247C1153.97 603.448 1154.62 603.428 1155.12 603.188C1155.62 602.943 1155.93 602.59 1156.04 602.13C1156.11 601.834 1156.09 601.562 1155.96 601.313C1155.84 601.061 1155.58 600.804 1155.19 600.544C1154.92 600.369 1154.29 600.021 1153.3 599.5C1152.03 598.83 1151.18 598.183 1150.76 597.559C1150.16 596.682 1149.98 595.748 1150.23 594.758C1150.38 594.121 1150.71 593.571 1151.2 593.107C1151.7 592.639 1152.33 592.344 1153.08 592.221C1153.83 592.099 1154.69 592.156 1155.65 592.393C1157.22 592.781 1158.32 593.416 1158.94 594.299C1159.56 595.184 1159.76 596.206 1159.51 597.365L1156.96 596.853C1157.01 596.183 1156.89 595.665 1156.6 595.298C1156.32 594.926 1155.82 594.653 1155.11 594.478C1154.38 594.297 1153.76 594.306 1153.27 594.505C1152.96 594.633 1152.76 594.858 1152.68 595.183C1152.61 595.479 1152.67 595.763 1152.87 596.035C1153.12 596.381 1153.83 596.85 1154.99 597.443C1156.14 598.036 1156.98 598.562 1157.48 599.019C1158 599.472 1158.36 600.01 1158.55 600.631C1158.76 601.249 1158.76 601.953 1158.57 602.744C1158.39 603.461 1158.03 604.083 1157.47 604.61C1156.92 605.138 1156.24 605.466 1155.44 605.593C1154.64 605.715 1153.69 605.642 1152.6 605.375C1151.02 604.985 1149.9 604.321 1149.23 603.384C1148.56 602.441 1148.32 601.249 1148.5 599.809ZM1166.17 598.869L1165.7 600.781L1164.06 600.377L1163.16 604.029C1162.97 604.769 1162.88 605.205 1162.88 605.337C1162.88 605.465 1162.93 605.582 1163.02 605.688C1163.11 605.796 1163.24 605.869 1163.4 605.909C1163.62 605.963 1163.96 605.966 1164.42 605.916L1164.17 607.827C1163.55 607.928 1162.89 607.892 1162.18 607.718C1161.75 607.611 1161.38 607.444 1161.07 607.216C1160.76 606.983 1160.55 606.732 1160.44 606.464C1160.34 606.191 1160.3 605.851 1160.34 605.443C1160.35 605.152 1160.47 604.582 1160.68 603.735L1161.65 599.784L1160.55 599.512L1161.02 597.601L1162.12 597.872L1162.57 596.071L1165.32 595.265L1164.53 598.465L1166.17 598.869ZM1165.6 608.342L1166.19 605.944L1168.59 606.535L1167.99 608.933L1165.6 608.342Z" fill="white"/>
<path d="M770.481 516.007L773.499 503.589L776.027 504.204L773.521 514.512L779.807 516.04L779.294 518.149L770.481 516.007ZM781.666 513.787C781.86 512.99 782.244 512.266 782.818 511.616C783.392 510.966 784.086 510.531 784.898 510.313C785.717 510.096 786.57 510.095 787.459 510.311C788.831 510.644 789.847 511.365 790.506 512.472C791.167 513.573 791.332 514.804 791.002 516.165C790.668 517.537 789.947 518.568 788.839 519.257C787.738 519.942 786.515 520.121 785.172 519.795C784.34 519.593 783.592 519.212 782.926 518.652C782.266 518.094 781.827 517.405 781.61 516.587C781.394 515.762 781.413 514.829 781.666 513.787ZM784.095 514.513C783.876 515.413 783.922 516.154 784.233 516.736C784.544 517.318 785.012 517.685 785.638 517.837C786.265 517.989 786.847 517.877 787.384 517.502C787.928 517.127 788.31 516.484 788.531 515.573C788.747 514.685 788.7 513.95 788.389 513.368C788.084 512.787 787.618 512.421 786.992 512.269C786.365 512.116 785.781 512.228 785.237 512.602C784.694 512.977 784.313 513.614 784.095 514.513ZM794.078 521.742L791.678 521.159L793.882 512.089L796.111 512.631L795.798 513.921C796.328 513.404 796.767 513.086 797.116 512.965C797.47 512.847 797.841 512.834 798.228 512.928C798.775 513.061 799.265 513.34 799.698 513.765L798.446 515.677C798.106 515.317 797.762 515.094 797.415 515.01C797.079 514.928 796.771 514.953 796.492 515.084C796.214 515.21 795.948 515.498 795.694 515.948C795.446 516.401 795.134 517.398 794.759 518.941L794.078 521.742ZM804.55 521.23L806.844 522.213C806.323 523.015 805.674 523.566 804.895 523.865C804.124 524.16 803.24 524.186 802.244 523.944C800.667 523.561 799.625 522.762 799.118 521.547C798.721 520.576 798.675 519.462 798.981 518.204C799.346 516.7 800.025 515.62 801.017 514.963C802.01 514.3 803.108 514.114 804.309 514.406C805.658 514.734 806.614 515.44 807.177 516.523C807.741 517.601 807.783 519.055 807.302 520.886L801.289 519.425C801.133 520.141 801.192 520.743 801.465 521.231C801.74 521.714 802.153 522.023 802.706 522.157C803.081 522.248 803.422 522.223 803.728 522.08C804.034 521.937 804.308 521.654 804.55 521.23ZM805.276 518.838C805.428 518.139 805.376 517.569 805.122 517.127C804.869 516.68 804.497 516.397 804.008 516.278C803.484 516.15 803.005 516.236 802.571 516.534C802.136 516.833 801.842 517.31 801.689 517.966L805.276 518.838ZM810.357 516.093L812.569 516.631L812.268 517.869C813.293 517.099 814.352 516.847 815.446 517.113C816.026 517.254 816.501 517.496 816.87 517.839C817.239 518.182 817.501 518.628 817.657 519.179C818.173 518.792 818.691 518.535 819.21 518.408C819.729 518.281 820.251 518.281 820.775 518.408C821.441 518.57 821.971 518.844 822.366 519.229C822.762 519.609 823.011 520.088 823.111 520.667C823.182 521.095 823.112 521.741 822.902 522.606L821.493 528.405L819.093 527.822L820.353 522.638C820.571 521.738 820.63 521.138 820.529 520.836C820.39 520.44 820.089 520.186 819.628 520.074C819.292 519.992 818.951 520.018 818.606 520.151C818.26 520.284 817.973 520.534 817.745 520.901C817.519 521.262 817.302 521.869 817.094 522.723L816.035 527.079L813.636 526.496L814.844 521.525C815.058 520.643 815.154 520.063 815.131 519.786C815.107 519.509 815.02 519.286 814.868 519.116C814.722 518.948 814.495 518.827 814.188 518.752C813.818 518.662 813.461 518.681 813.116 518.808C812.772 518.935 812.488 519.171 812.266 519.515C812.049 519.86 811.835 520.468 811.623 521.339L810.552 525.746L808.153 525.163L810.357 516.093ZM828.701 530.157L831.744 517.637L834.272 518.251L831.229 530.772L828.701 530.157ZM835.765 522.268L838.002 522.812L837.679 524.144C838.08 523.759 838.562 523.485 839.127 523.321C839.692 523.156 840.276 523.147 840.879 523.294C841.932 523.55 842.726 524.18 843.26 525.184C843.794 526.188 843.881 527.428 843.523 528.902C843.155 530.417 842.498 531.505 841.553 532.168C840.61 532.825 839.611 533.026 838.558 532.77C838.057 532.648 837.626 532.438 837.264 532.139C836.908 531.841 836.564 531.396 836.232 530.803L835.122 535.372L832.722 534.789L835.765 522.268ZM837.074 527.227C836.826 528.246 836.845 529.049 837.131 529.637C837.417 530.219 837.851 530.581 838.432 530.722C838.99 530.858 839.508 530.748 839.986 530.394C840.465 530.034 840.829 529.345 841.076 528.326C841.307 527.375 841.288 526.623 841.019 526.069C840.749 525.515 840.333 525.169 839.769 525.032C839.183 524.89 838.641 524.999 838.143 525.361C837.646 525.716 837.29 526.338 837.074 527.227ZM844.105 531.16L846.602 531.378C846.591 531.87 846.713 532.277 846.966 532.597C847.221 532.913 847.631 533.139 848.194 533.276C848.815 533.427 849.31 533.426 849.678 533.275C849.928 533.166 850.085 532.978 850.15 532.711C850.194 532.529 850.174 532.364 850.089 532.217C849.997 532.074 849.755 531.903 849.363 531.706C847.531 530.808 846.399 530.12 845.966 529.641C845.368 528.977 845.175 528.209 845.386 527.338C845.577 526.553 846.048 525.967 846.799 525.583C847.55 525.199 848.577 525.165 849.881 525.482C851.122 525.784 851.995 526.21 852.5 526.761C853.006 527.312 853.276 528.011 853.311 528.857L850.947 528.726C850.936 528.349 850.816 528.034 850.589 527.779C850.367 527.527 850.005 527.339 849.504 527.217C848.872 527.064 848.398 527.042 848.082 527.152C847.869 527.233 847.739 527.373 847.69 527.573C847.649 527.743 847.693 527.908 847.824 528.066C848.001 528.278 848.692 528.684 849.897 529.285C851.108 529.886 851.915 530.46 852.319 531.004C852.717 531.553 852.823 532.209 852.637 532.972C852.435 533.803 851.914 534.433 851.074 534.862C850.234 535.291 849.134 535.34 847.773 535.01C846.538 534.709 845.619 534.221 845.018 533.544C844.422 532.869 844.118 532.074 844.105 531.16ZM860.027 537.771L860.357 536.413C859.909 536.816 859.381 537.092 858.772 537.24C858.169 537.388 857.569 537.39 856.971 537.245C856.362 537.097 855.848 536.83 855.429 536.445C855.01 536.06 854.751 535.599 854.653 535.062C854.554 534.526 854.608 533.831 854.816 532.977L856.211 527.237L858.61 527.821L857.598 531.988C857.288 533.264 857.14 534.057 857.155 534.368C857.177 534.675 857.284 534.942 857.476 535.17C857.669 535.392 857.945 535.546 858.304 535.633C858.714 535.733 859.108 535.711 859.486 535.568C859.866 535.419 860.156 535.194 860.356 534.893C860.557 534.586 860.815 533.783 861.131 532.485L862.061 528.659L864.461 529.242L862.256 538.312L860.027 537.771ZM866.775 529.805L868.987 530.343L868.686 531.581C869.711 530.811 870.771 530.559 871.864 530.825C872.445 530.966 872.919 531.208 873.288 531.551C873.657 531.894 873.919 532.34 874.075 532.891C874.591 532.504 875.109 532.247 875.628 532.119C876.148 531.992 876.669 531.993 877.193 532.12C877.859 532.282 878.39 532.555 878.784 532.941C879.181 533.32 879.429 533.8 879.529 534.379C879.6 534.806 879.531 535.453 879.32 536.318L877.911 542.117L875.511 541.534L876.771 536.35C876.99 535.45 877.048 534.849 876.947 534.547C876.808 534.152 876.508 533.898 876.046 533.786C875.711 533.704 875.37 533.73 875.024 533.863C874.678 533.996 874.391 534.246 874.163 534.613C873.937 534.974 873.72 535.581 873.512 536.435L872.454 540.791L870.054 540.208L871.262 535.237C871.476 534.354 871.572 533.775 871.549 533.498C871.526 533.221 871.438 532.998 871.286 532.828C871.14 532.66 870.914 532.538 870.606 532.464C870.236 532.374 869.879 532.392 869.534 532.52C869.19 532.647 868.906 532.883 868.684 533.227C868.468 533.572 868.253 534.18 868.042 535.051L866.971 539.458L864.571 538.875L866.775 529.805ZM885.546 539.658L888.063 540.017C888.011 540.878 888.162 541.557 888.518 542.054C888.879 542.552 889.444 542.894 890.213 543.081C891.027 543.279 891.681 543.257 892.174 543.015C892.674 542.768 892.98 542.415 893.092 541.954C893.164 541.657 893.136 541.386 893.01 541.138C892.89 540.885 892.633 540.63 892.237 540.371C891.966 540.197 891.336 539.85 890.346 539.333C889.073 538.667 888.222 538.023 887.795 537.401C887.193 536.525 887.013 535.592 887.254 534.601C887.409 533.964 887.733 533.412 888.226 532.947C888.726 532.478 889.35 532.18 890.098 532.054C890.852 531.93 891.71 531.985 892.672 532.219C894.243 532.601 895.341 533.232 895.965 534.113C896.595 534.996 896.79 536.017 896.55 537.177L893.995 536.674C894.043 536.004 893.922 535.486 893.631 535.12C893.347 534.75 892.85 534.478 892.138 534.305C891.403 534.126 890.792 534.137 890.303 534.338C889.988 534.467 889.791 534.693 889.712 535.018C889.64 535.314 889.704 535.598 889.903 535.869C890.157 536.214 890.864 536.682 892.023 537.271C893.182 537.86 894.017 538.383 894.527 538.838C895.045 539.29 895.403 539.826 895.602 540.447C895.808 541.064 895.814 541.768 895.622 542.559C895.448 543.277 895.085 543.9 894.534 544.43C893.983 544.959 893.306 545.289 892.503 545.419C891.701 545.544 890.756 545.474 889.668 545.21C888.086 544.825 886.959 544.165 886.287 543.23C885.617 542.29 885.37 541.099 885.546 539.658ZM903.209 538.66L902.744 540.573L901.104 540.174L900.216 543.83C900.036 544.57 899.945 545.006 899.943 545.138C899.948 545.266 899.995 545.383 900.084 545.489C900.178 545.596 900.305 545.669 900.465 545.708C900.687 545.762 901.027 545.763 901.486 545.712L901.238 547.624C900.622 547.727 899.961 547.693 899.255 547.522C898.822 547.416 898.45 547.251 898.137 547.024C897.825 546.791 897.615 546.541 897.505 546.273C897.402 546.001 897.368 545.661 897.4 545.253C897.417 544.961 897.528 544.392 897.735 543.543L898.696 539.589L897.594 539.321L898.059 537.408L899.161 537.676L899.598 535.874L902.347 535.059L901.569 538.261L903.209 538.66ZM902.67 548.134L903.253 545.735L905.653 546.318L905.07 548.718L902.67 548.134Z" fill="white"/>
<path d="M507.661 323.253L511.352 311.018L513.843 311.77L510.779 321.926L516.972 323.794L516.345 325.873L507.661 323.253ZM518.951 321.647C519.188 320.861 519.611 320.16 520.22 319.541C520.828 318.923 521.545 318.527 522.368 318.354C523.197 318.182 524.05 318.227 524.925 318.491C526.277 318.899 527.252 319.674 527.85 320.815C528.45 321.951 528.547 323.189 528.143 324.53C527.735 325.882 526.959 326.872 525.815 327.5C524.678 328.124 523.447 328.236 522.124 327.837C521.305 327.589 520.578 327.168 519.943 326.573C519.315 325.979 518.914 325.268 518.742 324.439C518.572 323.604 518.641 322.673 518.951 321.647ZM521.336 322.504C521.069 323.39 521.075 324.133 521.353 324.731C521.632 325.329 522.079 325.721 522.697 325.907C523.314 326.093 523.901 326.013 524.458 325.667C525.021 325.323 525.438 324.702 525.709 323.805C525.973 322.93 525.965 322.193 525.687 321.595C525.414 320.998 524.969 320.607 524.352 320.421C523.735 320.235 523.145 320.314 522.582 320.658C522.019 321.002 521.604 321.618 521.336 322.504ZM530.91 330.267L528.546 329.554L531.242 320.618L533.438 321.28L533.055 322.551C533.612 322.064 534.068 321.77 534.422 321.669C534.783 321.57 535.154 321.578 535.535 321.693C536.074 321.855 536.548 322.16 536.957 322.608L535.603 324.449C535.283 324.071 534.952 323.83 534.609 323.727C534.278 323.627 533.97 323.635 533.684 323.751C533.4 323.861 533.119 324.134 532.84 324.57C532.567 325.008 532.202 325.987 531.743 327.507L530.91 330.267ZM541.394 330.327L543.631 331.434C543.068 332.206 542.389 332.721 541.596 332.977C540.81 333.229 539.926 333.208 538.944 332.911C537.39 332.443 536.393 331.588 535.954 330.348C535.61 329.356 535.625 328.241 535.999 327.001C536.446 325.52 537.183 324.479 538.209 323.876C539.237 323.269 540.343 323.143 541.526 323.5C542.856 323.901 543.772 324.658 544.275 325.771C544.779 326.878 544.741 328.332 544.161 330.134L538.237 328.347C538.043 329.053 538.068 329.657 538.314 330.16C538.562 330.657 538.958 330.988 539.502 331.152C539.873 331.264 540.214 331.257 540.528 331.131C540.841 331.005 541.13 330.737 541.394 330.327ZM542.25 327.978C542.44 327.289 542.42 326.717 542.19 326.262C541.961 325.801 541.606 325.498 541.124 325.353C540.607 325.197 540.124 325.256 539.674 325.53C539.225 325.805 538.905 326.265 538.716 326.912L542.25 327.978ZM547.473 325.515L549.653 326.172L549.285 327.392C550.35 326.68 551.422 326.486 552.499 326.811C553.071 326.983 553.532 327.251 553.882 327.613C554.231 327.976 554.469 328.436 554.594 328.994C555.131 328.636 555.662 328.408 556.187 328.309C556.713 328.211 557.233 328.239 557.749 328.395C558.406 328.593 558.92 328.895 559.294 329.301C559.668 329.702 559.89 330.194 559.959 330.778C560.006 331.209 559.902 331.85 559.644 332.703L557.921 338.416L555.556 337.703L557.097 332.595C557.365 331.709 557.456 331.112 557.371 330.805C557.254 330.403 556.968 330.133 556.514 329.996C556.183 329.896 555.841 329.903 555.488 330.017C555.136 330.131 554.835 330.365 554.588 330.718C554.342 331.067 554.092 331.661 553.839 332.503L552.544 336.794L550.179 336.081L551.657 331.184C551.919 330.314 552.046 329.74 552.038 329.463C552.03 329.185 551.955 328.957 551.813 328.78C551.676 328.604 551.457 328.47 551.154 328.379C550.789 328.269 550.431 328.268 550.08 328.376C549.729 328.484 549.433 328.704 549.193 329.036C548.958 329.369 548.711 329.964 548.452 330.822L547.142 335.164L544.777 334.451L547.473 325.515ZM565.022 340.559L568.744 328.223L571.235 328.975L567.513 341.31L565.022 340.559ZM572.506 333.067L574.711 333.732L574.315 335.045C574.736 334.683 575.233 334.435 575.806 334.302C576.379 334.168 576.962 334.191 577.557 334.371C578.595 334.684 579.353 335.356 579.831 336.388C580.309 337.42 580.329 338.662 579.891 340.115C579.441 341.607 578.726 342.658 577.746 343.269C576.768 343.873 575.76 344.019 574.722 343.706C574.229 343.557 573.809 343.323 573.465 343.005C573.126 342.689 572.807 342.225 572.507 341.615L571.149 346.116L568.785 345.403L572.506 333.067ZM573.543 338.09C573.24 339.094 573.215 339.897 573.468 340.5C573.722 341.097 574.136 341.482 574.708 341.654C575.257 341.82 575.781 341.739 576.277 341.412C576.776 341.079 577.176 340.41 577.479 339.406C577.762 338.469 577.784 337.717 577.545 337.149C577.306 336.581 576.909 336.213 576.354 336.046C575.776 335.872 575.229 335.951 574.712 336.285C574.197 336.613 573.807 337.215 573.543 338.09ZM580.349 342.401L582.831 342.755C582.793 343.246 582.892 343.658 583.128 343.992C583.365 344.321 583.761 344.569 584.317 344.737C584.928 344.921 585.422 344.948 585.798 344.817C586.053 344.722 586.22 344.543 586.3 344.279C586.354 344.1 586.343 343.934 586.266 343.783C586.182 343.635 585.95 343.452 585.569 343.233C583.789 342.237 582.696 341.488 582.29 340.986C581.729 340.29 581.578 339.513 581.837 338.655C582.07 337.881 582.573 337.322 583.343 336.979C584.114 336.637 585.141 336.659 586.426 337.047C587.649 337.416 588.497 337.889 588.972 338.467C589.446 339.044 589.678 339.757 589.667 340.604L587.313 340.344C587.323 339.967 587.221 339.646 587.007 339.379C586.799 339.115 586.449 338.908 585.955 338.759C585.332 338.571 584.86 338.524 584.538 338.616C584.322 338.685 584.184 338.818 584.124 339.015C584.074 339.183 584.109 339.35 584.231 339.515C584.396 339.736 585.064 340.179 586.235 340.845C587.411 341.512 588.185 342.128 588.559 342.694C588.926 343.263 588.996 343.924 588.769 344.676C588.522 345.495 587.968 346.095 587.106 346.478C586.243 346.86 585.142 346.849 583.801 346.445C582.584 346.078 581.694 345.54 581.13 344.831C580.572 344.124 580.312 343.314 580.349 342.401ZM595.887 349.871L596.29 348.533C595.821 348.912 595.278 349.158 594.663 349.272C594.052 349.388 593.453 349.357 592.864 349.179C592.264 348.998 591.765 348.704 591.368 348.296C590.97 347.889 590.737 347.414 590.668 346.873C590.598 346.332 590.691 345.641 590.944 344.799L592.65 339.145L595.015 339.858L593.776 343.965C593.397 345.221 593.206 346.005 593.204 346.317C593.209 346.624 593.301 346.897 593.481 347.134C593.662 347.366 593.929 347.536 594.282 347.642C594.686 347.764 595.081 347.764 595.467 347.642C595.854 347.514 596.156 347.305 596.372 347.015C596.589 346.72 596.891 345.933 597.277 344.654L598.414 340.884L600.779 341.597L598.083 350.533L595.887 349.871ZM603.059 342.285L605.238 342.943L604.87 344.163C605.936 343.45 607.008 343.256 608.085 343.581C608.657 343.754 609.118 344.021 609.467 344.384C609.817 344.746 610.054 345.207 610.18 345.765C610.716 345.406 611.247 345.178 611.773 345.079C612.298 344.981 612.819 345.01 613.335 345.165C613.991 345.363 614.506 345.665 614.879 346.072C615.254 346.473 615.476 346.965 615.545 347.549C615.592 347.979 615.487 348.621 615.23 349.473L613.506 355.187L611.142 354.473L612.683 349.366C612.95 348.48 613.042 347.883 612.957 347.576C612.84 347.173 612.554 346.903 612.099 346.766C611.768 346.666 611.427 346.673 611.074 346.787C610.721 346.901 610.421 347.135 610.174 347.489C609.928 347.837 609.678 348.432 609.424 349.273L608.13 353.565L605.765 352.851L607.243 347.954C607.505 347.084 607.632 346.511 607.624 346.233C607.616 345.955 607.541 345.728 607.399 345.55C607.262 345.374 607.042 345.24 606.739 345.149C606.375 345.039 606.017 345.038 605.666 345.147C605.315 345.255 605.019 345.475 604.779 345.806C604.543 346.139 604.296 346.735 604.037 347.593L602.728 351.935L600.363 351.221L603.059 342.285ZM621.264 353.148L623.758 353.644C623.659 354.501 623.773 355.187 624.101 355.703C624.435 356.219 624.98 356.592 625.737 356.821C626.54 357.063 627.193 357.076 627.699 356.861C628.212 356.643 628.537 356.306 628.674 355.852C628.762 355.56 628.749 355.287 628.636 355.033C628.531 354.774 628.287 354.505 627.907 354.225C627.646 354.036 627.035 353.656 626.075 353.085C624.84 352.351 624.026 351.662 623.633 351.017C623.08 350.11 622.951 349.168 623.246 348.192C623.435 347.564 623.789 347.031 624.306 346.593C624.831 346.152 625.471 345.889 626.224 345.804C626.984 345.721 627.838 345.823 628.786 346.109C630.334 346.576 631.396 347.266 631.97 348.18C632.551 349.096 632.69 350.126 632.387 351.271L629.864 350.629C629.948 349.963 629.856 349.44 629.585 349.058C629.322 348.673 628.84 348.374 628.138 348.163C627.415 347.944 626.803 347.922 626.304 348.096C625.983 348.207 625.774 348.422 625.678 348.742C625.59 349.034 625.638 349.321 625.822 349.603C626.057 349.961 626.737 350.466 627.862 351.118C628.987 351.769 629.792 352.337 630.277 352.82C630.769 353.299 631.097 353.854 631.262 354.485C631.434 355.112 631.402 355.815 631.167 356.595C630.954 357.302 630.558 357.904 629.979 358.403C629.4 358.902 628.706 359.194 627.896 359.28C627.089 359.361 626.149 359.24 625.078 358.917C623.518 358.446 622.429 357.726 621.81 356.755C621.192 355.78 621.01 354.577 621.264 353.148ZM638.955 353.115L638.386 355L636.771 354.513L635.684 358.114C635.464 358.843 635.35 359.274 635.341 359.406C635.339 359.534 635.379 359.653 635.462 359.764C635.551 359.876 635.673 359.956 635.83 360.003C636.049 360.069 636.389 360.089 636.85 360.063L636.498 361.958C635.877 362.028 635.219 361.958 634.524 361.748C634.097 361.619 633.734 361.433 633.434 361.19C633.136 360.941 632.94 360.68 632.845 360.406C632.757 360.129 632.741 359.787 632.796 359.381C632.828 359.091 632.97 358.528 633.223 357.693L634.398 353.797L633.313 353.469L633.881 351.584L634.967 351.912L635.502 350.136L638.292 349.472L637.34 352.628L638.955 353.115ZM637.9 362.546L638.613 360.182L640.978 360.895L640.264 363.26L637.9 362.546Z" fill="white"/>
<path d="M661.71 629.747L649.366 626.439L650.039 623.926L660.286 626.672L661.96 620.424L664.057 620.986L661.71 629.747ZM659.752 618.513C658.959 618.3 658.245 617.899 657.608 617.31C656.971 616.721 656.553 616.018 656.354 615.2C656.156 614.376 656.175 613.523 656.412 612.64C656.777 611.276 657.521 610.278 658.643 609.644C659.76 609.009 660.994 608.873 662.347 609.235C663.711 609.601 664.725 610.345 665.388 611.47C666.047 612.586 666.198 613.813 665.84 615.148C665.618 615.975 665.22 616.714 664.645 617.367C664.071 618.014 663.372 618.436 662.549 618.634C661.72 618.831 660.788 618.79 659.752 618.513ZM660.534 616.102C661.429 616.341 662.17 616.313 662.759 616.015C663.349 615.718 663.727 615.259 663.893 614.636C664.06 614.013 663.962 613.429 663.599 612.883C663.237 612.331 662.603 611.934 661.698 611.691C660.815 611.454 660.079 611.485 659.49 611.782C658.902 612.073 658.525 612.53 658.358 613.153C658.191 613.775 658.289 614.363 658.65 614.914C659.012 615.466 659.64 615.862 660.534 616.102ZM667.995 606.29L667.356 608.676L658.34 606.26L658.934 604.044L660.215 604.388C659.711 603.846 659.403 603.4 659.291 603.048C659.181 602.691 659.177 602.32 659.28 601.935C659.426 601.392 659.716 600.908 660.151 600.485L662.033 601.781C661.665 602.113 661.435 602.452 661.342 602.797C661.253 603.131 661.27 603.439 661.395 603.721C661.514 604.001 661.796 604.274 662.24 604.539C662.687 604.798 663.677 605.133 665.21 605.544L667.995 606.29ZM667.728 595.809L668.764 593.539C669.553 594.078 670.089 594.74 670.37 595.525C670.647 596.303 670.652 597.187 670.387 598.178C669.967 599.745 669.144 600.768 667.918 601.247C666.938 601.621 665.823 601.641 664.572 601.306C663.078 600.905 662.013 600.201 661.379 599.194C660.74 598.186 660.58 597.085 660.9 595.89C661.259 594.549 661.987 593.61 663.084 593.072C664.174 592.534 665.629 592.526 667.448 593.05L665.847 599.027C666.559 599.199 667.162 599.155 667.657 598.893C668.146 598.63 668.464 598.224 668.611 597.675C668.711 597.301 668.693 596.96 668.558 596.65C668.422 596.341 668.146 596.061 667.728 595.809ZM665.353 595.027C664.658 594.859 664.087 594.897 663.639 595.141C663.186 595.384 662.894 595.748 662.764 596.235C662.624 596.756 662.699 597.237 662.987 597.678C663.275 598.119 663.745 598.424 664.398 598.593L665.353 595.027ZM662.728 589.883L663.317 587.685L664.548 588.014C663.802 586.971 663.575 585.907 663.866 584.82C664.021 584.243 664.274 583.774 664.625 583.413C664.977 583.052 665.43 582.8 665.983 582.658C665.608 582.132 665.364 581.609 665.249 581.087C665.134 580.565 665.146 580.043 665.286 579.522C665.463 578.86 665.749 578.336 666.144 577.951C666.532 577.564 667.018 577.327 667.599 577.24C668.028 577.179 668.672 577.263 669.533 577.494L675.297 579.039L674.658 581.424L669.505 580.043C668.61 579.804 668.011 579.731 667.707 579.825C667.308 579.955 667.047 580.249 666.924 580.708C666.835 581.042 666.853 581.383 666.978 581.732C667.102 582.081 667.346 582.373 667.707 582.61C668.062 582.845 668.665 583.076 669.514 583.303L673.843 584.463L673.204 586.849L668.263 585.525C667.386 585.29 666.809 585.181 666.531 585.197C666.254 585.214 666.029 585.296 665.855 585.444C665.684 585.586 665.557 585.81 665.475 586.116C665.377 586.483 665.387 586.841 665.506 587.188C665.626 587.536 665.855 587.825 666.193 588.055C666.533 588.28 667.136 588.508 668.002 588.74L672.383 589.914L671.744 592.299L662.728 589.883ZM677.217 571.873L664.771 568.539L665.444 566.026L677.89 569.36L677.217 571.873ZM669.495 564.627L670.091 562.403L671.416 562.758C671.04 562.348 670.777 561.858 670.626 561.29C670.475 560.722 670.48 560.138 670.64 559.538C670.921 558.491 671.569 557.712 672.586 557.202C673.602 556.692 674.843 556.633 676.309 557.026C677.814 557.429 678.887 558.111 679.528 559.071C680.163 560.03 680.34 561.033 680.059 562.08C679.926 562.578 679.706 563.004 679.398 563.359C679.093 563.707 678.639 564.041 678.038 564.359L682.58 565.576L681.941 567.962L669.495 564.627ZM674.483 563.434C675.496 563.705 676.3 563.705 676.894 563.434C677.483 563.161 677.855 562.736 678.009 562.159C678.158 561.604 678.061 561.083 677.718 560.597C677.369 560.11 676.688 559.73 675.675 559.459C674.73 559.205 673.978 559.207 673.418 559.463C672.858 559.72 672.502 560.128 672.352 560.688C672.196 561.271 672.293 561.816 672.642 562.322C672.986 562.827 673.6 563.197 674.483 563.434ZM678.58 556.497L678.856 554.005C679.348 554.028 679.757 553.916 680.084 553.67C680.405 553.422 680.64 553.018 680.79 552.458C680.956 551.841 680.967 551.347 680.824 550.975C680.722 550.723 680.537 550.561 680.271 550.49C680.09 550.441 679.925 550.458 679.776 550.539C679.631 550.628 679.455 550.866 679.248 551.253C678.308 553.064 677.593 554.179 677.105 554.6C676.427 555.183 675.655 555.358 674.789 555.126C674.008 554.917 673.434 554.433 673.067 553.673C672.701 552.914 672.691 551.886 673.038 550.59C673.369 549.356 673.815 548.493 674.378 548.001C674.94 547.509 675.645 547.255 676.493 547.239L676.306 549.6C675.929 549.603 675.611 549.714 675.352 549.936C675.094 550.152 674.898 550.509 674.764 551.007C674.596 551.635 674.563 552.109 674.666 552.427C674.742 552.642 674.879 552.776 675.077 552.829C675.247 552.874 675.412 552.834 675.574 552.707C675.79 552.534 676.212 551.853 676.84 550.662C677.47 549.466 678.062 548.673 678.616 548.281C679.174 547.897 679.832 547.806 680.59 548.009C681.417 548.231 682.034 548.766 682.444 549.616C682.853 550.466 682.876 551.567 682.514 552.92C682.185 554.148 681.675 555.055 680.984 555.64C680.295 556.22 679.494 556.505 678.58 556.497ZM685.561 540.734L684.211 540.372C684.604 540.829 684.867 541.364 685 541.976C685.135 542.582 685.123 543.182 684.964 543.776C684.802 544.382 684.523 544.89 684.128 545.3C683.733 545.709 683.266 545.957 682.728 546.043C682.189 546.13 681.495 546.059 680.646 545.832L674.941 544.303L675.58 541.917L679.723 543.027C680.991 543.367 681.781 543.533 682.092 543.526C682.399 543.511 682.669 543.41 682.901 543.224C683.127 543.036 683.288 542.763 683.384 542.407C683.493 541.999 683.48 541.605 683.346 541.223C683.206 540.84 682.988 540.545 682.691 540.338C682.389 540.129 681.593 539.852 680.303 539.507L676.499 538.488L677.139 536.102L686.154 538.518L685.561 540.734ZM677.755 533.801L678.344 531.602L679.575 531.932C678.829 530.889 678.602 529.824 678.893 528.738C679.048 528.161 679.301 527.691 679.653 527.331C680.004 526.97 680.457 526.718 681.011 526.575C680.636 526.05 680.391 525.527 680.276 525.005C680.161 524.482 680.173 523.961 680.313 523.44C680.49 522.778 680.776 522.254 681.171 521.869C681.56 521.481 682.045 521.244 682.626 521.158C683.055 521.097 683.699 521.181 684.56 521.412L690.324 522.956L689.685 525.342L684.532 523.961C683.638 523.722 683.038 523.649 682.734 523.743C682.335 523.873 682.074 524.167 681.952 524.626C681.862 524.959 681.88 525.301 682.005 525.65C682.13 525.999 682.373 526.291 682.734 526.528C683.09 526.762 683.692 526.994 684.541 527.221L688.871 528.381L688.231 530.767L683.29 529.443C682.413 529.208 681.836 529.099 681.558 529.115C681.281 529.132 681.056 529.214 680.883 529.362C680.711 529.504 680.584 529.728 680.503 530.033C680.404 530.401 680.414 530.759 680.534 531.106C680.653 531.454 680.882 531.743 681.22 531.973C681.561 532.197 682.164 532.426 683.03 532.658L687.41 533.832L686.771 536.217L677.755 533.801ZM688.044 515.266L688.462 512.758C689.322 512.83 690.004 512.695 690.509 512.351C691.015 512.001 691.371 511.444 691.575 510.68C691.792 509.871 691.785 509.217 691.555 508.718C691.32 508.213 690.974 507.899 690.516 507.776C690.221 507.697 689.949 507.718 689.698 507.839C689.443 507.952 689.182 508.204 688.914 508.593C688.733 508.86 688.372 509.482 687.831 510.459C687.136 511.717 686.473 512.552 685.84 512.965C684.951 513.546 684.014 513.704 683.029 513.44C682.395 513.27 681.851 512.934 681.398 512.43C680.94 511.919 680.657 511.288 680.549 510.537C680.442 509.781 680.517 508.924 680.774 507.968C681.192 506.406 681.849 505.323 682.745 504.72C683.642 504.111 684.667 503.94 685.821 504.207L685.258 506.749C684.59 506.685 684.069 506.795 683.697 507.077C683.32 507.352 683.036 507.843 682.847 508.551C682.651 509.281 682.648 509.893 682.837 510.386C682.958 510.704 683.18 510.906 683.503 510.992C683.797 511.071 684.082 511.014 684.358 510.821C684.709 510.575 685.193 509.88 685.809 508.735C686.425 507.59 686.967 506.767 687.435 506.268C687.898 505.761 688.442 505.416 689.068 505.231C689.69 505.04 690.394 505.05 691.18 505.261C691.894 505.452 692.508 505.829 693.025 506.392C693.541 506.955 693.855 507.639 693.967 508.446C694.072 509.25 693.981 510.193 693.691 511.274C693.269 512.848 692.583 513.959 691.633 514.608C690.677 515.256 689.481 515.475 688.044 515.266ZM687.459 497.585L689.361 498.094L688.924 499.724L692.558 500.698C693.293 500.895 693.727 500.996 693.859 501.001C693.987 500.999 694.105 500.955 694.213 500.869C694.323 500.777 694.399 500.651 694.442 500.493C694.501 500.272 694.51 499.932 694.469 499.472L696.375 499.764C696.464 500.383 696.414 501.043 696.226 501.745C696.111 502.175 695.936 502.543 695.702 502.851C695.463 503.157 695.208 503.361 694.937 503.465C694.663 503.561 694.322 503.588 693.915 503.546C693.624 503.522 693.057 503.398 692.213 503.172L688.283 502.118L687.989 503.213L686.088 502.704L686.381 501.609L684.59 501.129L683.839 498.362L687.022 499.215L687.459 497.585ZM696.919 498.345L694.533 497.706L695.172 495.32L697.558 495.959L696.919 498.345Z" fill="white"/>
<path d="M1070.53 254.769L1073.63 242.37L1076.15 243L1073.58 253.292L1079.86 254.859L1079.33 256.965L1070.53 254.769ZM1081.73 252.617C1081.93 251.821 1082.32 251.1 1082.9 250.453C1083.48 249.806 1084.17 249.376 1084.99 249.163C1085.81 248.951 1086.66 248.955 1087.55 249.176C1088.92 249.518 1089.93 250.245 1090.58 251.356C1091.23 252.461 1091.39 253.693 1091.05 255.052C1090.71 256.422 1089.98 257.448 1088.87 258.131C1087.77 258.809 1086.54 258.981 1085.2 258.646C1084.37 258.439 1083.63 258.054 1082.96 257.49C1082.31 256.927 1081.87 256.236 1081.66 255.416C1081.45 254.591 1081.47 253.658 1081.73 252.617ZM1084.16 253.358C1083.93 254.256 1083.97 254.997 1084.28 255.581C1084.59 256.165 1085.05 256.535 1085.68 256.691C1086.31 256.847 1086.89 256.739 1087.43 256.367C1087.97 255.995 1088.36 255.355 1088.59 254.445C1088.81 253.559 1088.77 252.823 1088.46 252.239C1088.16 251.657 1087.69 251.287 1087.07 251.131C1086.44 250.975 1085.86 251.083 1085.31 251.454C1084.77 251.825 1084.38 252.46 1084.16 253.358ZM1094.1 260.648L1091.7 260.05L1093.96 250.994L1096.18 251.549L1095.86 252.837C1096.4 252.324 1096.84 252.008 1097.19 251.89C1097.54 251.773 1097.91 251.763 1098.3 251.86C1098.85 251.996 1099.33 252.278 1099.76 252.705L1098.5 254.609C1098.16 254.247 1097.82 254.023 1097.47 253.936C1097.14 253.853 1096.83 253.875 1096.55 254.005C1096.27 254.129 1096 254.415 1095.75 254.864C1095.5 255.315 1095.18 256.311 1094.79 257.851L1094.1 260.648ZM1104.57 260.2L1106.86 261.197C1106.33 261.996 1105.68 262.542 1104.9 262.837C1104.13 263.127 1103.24 263.148 1102.25 262.9C1100.67 262.507 1099.64 261.702 1099.14 260.484C1098.75 259.511 1098.71 258.396 1099.02 257.139C1099.39 255.639 1100.08 254.563 1101.08 253.911C1102.07 253.254 1103.17 253.075 1104.37 253.375C1105.72 253.711 1106.67 254.422 1107.23 255.509C1107.78 256.591 1107.82 258.045 1107.32 259.873L1101.32 258.375C1101.16 259.09 1101.22 259.692 1101.49 260.182C1101.76 260.667 1102.17 260.978 1102.72 261.116C1103.1 261.209 1103.44 261.186 1103.74 261.045C1104.05 260.904 1104.33 260.622 1104.57 260.2ZM1105.31 257.812C1105.47 257.115 1105.42 256.544 1105.17 256.101C1104.92 255.652 1104.55 255.366 1104.06 255.244C1103.54 255.114 1103.06 255.196 1102.62 255.492C1102.18 255.788 1101.89 256.264 1101.73 256.919L1105.31 257.812ZM1110.41 255.099L1112.62 255.65L1112.31 256.886C1113.34 256.123 1114.4 255.877 1115.49 256.149C1116.07 256.294 1116.54 256.539 1116.91 256.884C1117.28 257.229 1117.54 257.678 1117.69 258.229C1118.21 257.845 1118.73 257.591 1119.25 257.467C1119.77 257.343 1120.29 257.347 1120.81 257.477C1121.48 257.643 1122.01 257.92 1122.4 258.308C1122.79 258.69 1123.04 259.171 1123.13 259.751C1123.2 260.178 1123.13 260.824 1122.91 261.688L1121.47 267.479L1119.07 266.881L1120.36 261.705C1120.59 260.806 1120.65 260.206 1120.55 259.903C1120.41 259.507 1120.12 259.251 1119.66 259.136C1119.32 259.052 1118.98 259.076 1118.63 259.207C1118.29 259.338 1118 259.586 1117.77 259.951C1117.54 260.311 1117.32 260.917 1117.11 261.77L1116.02 266.119L1113.62 265.521L1114.86 260.558C1115.08 259.677 1115.18 259.098 1115.16 258.821C1115.14 258.543 1115.05 258.32 1114.9 258.149C1114.76 257.98 1114.53 257.857 1114.22 257.781C1113.85 257.689 1113.5 257.705 1113.15 257.83C1112.81 257.955 1112.52 258.189 1112.3 258.532C1112.08 258.876 1111.86 259.483 1111.64 260.353L1110.55 264.753L1108.15 264.155L1110.41 255.099ZM1128.67 269.275L1131.79 256.773L1134.31 257.403L1131.19 269.904L1128.67 269.275ZM1135.78 261.429L1138.01 261.987L1137.68 263.317C1138.08 262.934 1138.57 262.663 1139.13 262.502C1139.7 262.341 1140.28 262.336 1140.89 262.486C1141.94 262.749 1142.73 263.384 1143.26 264.391C1143.78 265.398 1143.86 266.638 1143.5 268.111C1143.12 269.623 1142.46 270.707 1141.51 271.364C1140.56 272.016 1139.56 272.21 1138.51 271.948C1138.01 271.823 1137.58 271.61 1137.22 271.309C1136.86 271.009 1136.52 270.561 1136.19 269.966L1135.06 274.528L1132.66 273.931L1135.78 261.429ZM1137.06 266.395C1136.8 267.413 1136.82 268.217 1137.1 268.806C1137.38 269.39 1137.81 269.754 1138.39 269.899C1138.95 270.038 1139.47 269.932 1139.95 269.581C1140.43 269.224 1140.8 268.537 1141.05 267.519C1141.29 266.57 1141.28 265.817 1141.01 265.262C1140.74 264.706 1140.33 264.358 1139.77 264.218C1139.18 264.072 1138.64 264.178 1138.14 264.536C1137.64 264.889 1137.28 265.508 1137.06 266.395ZM1144.06 270.372L1146.56 270.605C1146.55 271.097 1146.66 271.504 1146.92 271.827C1147.17 272.143 1147.58 272.372 1148.14 272.512C1148.76 272.667 1149.25 272.67 1149.62 272.52C1149.87 272.414 1150.03 272.227 1150.1 271.959C1150.14 271.778 1150.13 271.613 1150.04 271.465C1149.95 271.321 1149.71 271.15 1149.32 270.949C1147.49 270.041 1146.36 269.346 1145.93 268.864C1145.34 268.196 1145.15 267.428 1145.37 266.558C1145.56 265.773 1146.04 265.191 1146.79 264.811C1147.55 264.432 1148.57 264.404 1149.87 264.729C1151.11 265.038 1151.98 265.47 1152.49 266.024C1152.99 266.578 1153.25 267.278 1153.28 268.125L1150.92 267.979C1150.91 267.603 1150.79 267.287 1150.57 267.031C1150.35 266.777 1149.99 266.587 1149.49 266.462C1148.86 266.305 1148.38 266.28 1148.07 266.388C1147.85 266.468 1147.72 266.607 1147.67 266.806C1147.63 266.977 1147.67 267.142 1147.8 267.301C1147.98 267.514 1148.67 267.924 1149.87 268.532C1151.07 269.141 1151.88 269.719 1152.28 270.266C1152.67 270.817 1152.78 271.474 1152.58 272.236C1152.38 273.066 1151.85 273.692 1151.01 274.116C1150.17 274.54 1149.07 274.583 1147.71 274.244C1146.47 273.936 1145.56 273.442 1144.96 272.761C1144.37 272.082 1144.07 271.286 1144.06 270.372ZM1159.95 277.08L1160.28 275.724C1159.83 276.125 1159.3 276.397 1158.69 276.541C1158.09 276.686 1157.49 276.684 1156.89 276.535C1156.28 276.383 1155.77 276.114 1155.36 275.726C1154.94 275.338 1154.68 274.876 1154.59 274.339C1154.49 273.801 1154.55 273.106 1154.76 272.254L1156.19 266.523L1158.59 267.121L1157.55 271.283C1157.23 272.556 1157.08 273.348 1157.09 273.66C1157.11 273.967 1157.22 274.234 1157.41 274.463C1157.6 274.686 1157.88 274.842 1158.24 274.932C1158.64 275.034 1159.04 275.014 1159.42 274.874C1159.8 274.727 1160.09 274.504 1160.29 274.204C1160.49 273.898 1160.76 273.097 1161.08 271.801L1162.03 267.981L1164.43 268.579L1162.17 277.635L1159.95 277.08ZM1166.74 269.155L1168.95 269.706L1168.64 270.943C1169.67 270.179 1170.73 269.934 1171.82 270.206C1172.4 270.351 1172.88 270.596 1173.24 270.941C1173.61 271.286 1173.87 271.734 1174.02 272.286C1174.54 271.902 1175.06 271.648 1175.58 271.524C1176.1 271.4 1176.62 271.403 1177.15 271.534C1177.81 271.7 1178.34 271.977 1178.73 272.365C1179.13 272.747 1179.37 273.228 1179.47 273.807C1179.54 274.235 1179.46 274.881 1179.25 275.745L1177.8 281.535L1175.41 280.937L1176.7 275.761C1176.92 274.863 1176.98 274.263 1176.88 273.96C1176.75 273.563 1176.45 273.308 1175.99 273.193C1175.65 273.109 1175.31 273.133 1174.97 273.264C1174.62 273.395 1174.33 273.643 1174.1 274.008C1173.87 274.368 1173.65 274.974 1173.44 275.827L1172.35 280.176L1169.96 279.578L1171.2 274.615C1171.42 273.733 1171.51 273.154 1171.49 272.877C1171.47 272.6 1171.39 272.376 1171.23 272.206C1171.09 272.037 1170.86 271.914 1170.56 271.837C1170.19 271.745 1169.83 271.762 1169.48 271.887C1169.14 272.012 1168.85 272.246 1168.63 272.589C1168.41 272.933 1168.19 273.54 1167.98 274.409L1166.88 278.81L1164.48 278.212L1166.74 269.155ZM1185.45 279.123L1187.97 279.497C1187.91 280.358 1188.06 281.038 1188.41 281.537C1188.77 282.037 1189.33 282.383 1190.1 282.574C1190.91 282.777 1191.56 282.759 1192.06 282.52C1192.56 282.277 1192.87 281.925 1192.98 281.465C1193.06 281.169 1193.03 280.897 1192.91 280.648C1192.79 280.395 1192.53 280.138 1192.14 279.877C1191.87 279.701 1191.24 279.351 1190.25 278.827C1188.98 278.154 1188.14 277.505 1187.71 276.88C1187.12 276 1186.94 275.066 1187.19 274.077C1187.35 273.44 1187.68 272.891 1188.17 272.429C1188.68 271.962 1189.3 271.668 1190.05 271.547C1190.81 271.428 1191.66 271.488 1192.62 271.727C1194.19 272.119 1195.29 272.757 1195.91 273.642C1196.53 274.529 1196.72 275.551 1196.47 276.71L1193.92 276.191C1193.97 275.521 1193.85 275.003 1193.57 274.635C1193.28 274.262 1192.79 273.988 1192.08 273.81C1191.34 273.627 1190.73 273.635 1190.24 273.832C1189.93 273.959 1189.73 274.184 1189.65 274.508C1189.57 274.804 1189.64 275.088 1189.83 275.361C1190.08 275.708 1190.79 276.179 1191.94 276.775C1193.1 277.372 1193.93 277.899 1194.44 278.358C1194.95 278.813 1195.31 279.351 1195.5 279.974C1195.71 280.592 1195.71 281.296 1195.51 282.086C1195.33 282.802 1194.97 283.423 1194.41 283.95C1193.86 284.476 1193.18 284.801 1192.37 284.927C1191.57 285.046 1190.63 284.971 1189.54 284.7C1187.96 284.306 1186.84 283.639 1186.17 282.7C1185.51 281.755 1185.27 280.563 1185.45 279.123ZM1203.12 278.233L1202.64 280.143L1201.01 279.734L1200.1 283.384C1199.91 284.123 1199.82 284.559 1199.82 284.691C1199.82 284.819 1199.87 284.936 1199.95 285.043C1200.05 285.151 1200.17 285.225 1200.33 285.264C1200.56 285.32 1200.9 285.323 1201.35 285.274L1201.1 287.185C1200.48 287.284 1199.82 287.246 1199.11 287.07C1198.68 286.963 1198.31 286.794 1198 286.566C1197.69 286.331 1197.48 286.08 1197.37 285.811C1197.27 285.538 1197.24 285.198 1197.27 284.79C1197.29 284.499 1197.41 283.93 1197.62 283.083L1198.6 279.134L1197.5 278.86L1197.98 276.95L1199.08 277.224L1199.53 275.425L1202.28 274.626L1201.48 277.824L1203.12 278.233ZM1202.52 287.704L1203.12 285.308L1205.52 285.906L1204.92 288.302L1202.52 287.704Z" fill="white"/>
<path d="M959.21 419.747L946.866 416.439L947.539 413.926L957.786 416.672L959.46 410.424L961.557 410.986L959.21 419.747ZM957.252 408.513C956.459 408.3 955.745 407.9 955.108 407.31C954.471 406.721 954.053 406.018 953.854 405.2C953.656 404.377 953.675 403.523 953.912 402.64C954.277 401.276 955.021 400.278 956.143 399.644C957.26 399.009 958.494 398.873 959.847 399.235C961.211 399.601 962.225 400.346 962.888 401.47C963.547 402.587 963.698 403.813 963.34 405.149C963.118 405.975 962.72 406.714 962.145 407.367C961.571 408.014 960.872 408.436 960.049 408.634C959.22 408.831 958.288 408.79 957.252 408.513ZM958.034 406.102C958.929 406.341 959.67 406.313 960.259 406.016C960.849 405.718 961.227 405.259 961.393 404.636C961.56 404.014 961.462 403.429 961.099 402.883C960.737 402.331 960.103 401.934 959.198 401.691C958.315 401.455 957.579 401.485 956.99 401.782C956.402 402.073 956.025 402.53 955.858 403.153C955.691 403.775 955.789 404.363 956.15 404.915C956.512 405.466 957.14 405.862 958.034 406.102ZM965.495 396.29L964.856 398.676L955.84 396.26L956.434 394.044L957.715 394.388C957.211 393.846 956.903 393.4 956.791 393.048C956.681 392.691 956.677 392.32 956.78 391.935C956.926 391.392 957.216 390.908 957.651 390.485L959.533 391.781C959.165 392.113 958.935 392.452 958.842 392.797C958.753 393.131 958.77 393.439 958.895 393.721C959.014 394.002 959.296 394.274 959.74 394.539C960.187 394.798 961.177 395.133 962.71 395.544L965.495 396.29ZM965.228 385.809L966.264 383.539C967.053 384.078 967.589 384.74 967.87 385.525C968.147 386.303 968.152 387.187 967.887 388.178C967.467 389.746 966.644 390.769 965.418 391.247C964.438 391.621 963.323 391.641 962.072 391.306C960.578 390.905 959.513 390.202 958.879 389.195C958.24 388.186 958.08 387.085 958.4 385.891C958.759 384.549 959.487 383.61 960.584 383.073C961.674 382.534 963.129 382.526 964.948 383.05L963.347 389.027C964.059 389.199 964.662 389.155 965.157 388.893C965.646 388.63 965.964 388.224 966.111 387.675C966.211 387.301 966.193 386.96 966.058 386.65C965.922 386.341 965.646 386.061 965.228 385.809ZM962.853 385.027C962.158 384.859 961.587 384.897 961.139 385.141C960.686 385.384 960.394 385.749 960.264 386.235C960.124 386.756 960.199 387.237 960.487 387.678C960.775 388.119 961.245 388.424 961.898 388.593L962.853 385.027ZM960.228 379.884L960.817 377.685L962.048 378.015C961.302 376.972 961.075 375.907 961.366 374.82C961.521 374.243 961.774 373.774 962.125 373.413C962.477 373.052 962.93 372.8 963.483 372.658C963.108 372.133 962.864 371.609 962.749 371.087C962.634 370.565 962.646 370.043 962.786 369.523C962.963 368.86 963.249 368.337 963.644 367.951C964.032 367.564 964.518 367.327 965.099 367.24C965.528 367.179 966.172 367.264 967.033 367.494L972.797 369.039L972.158 371.424L967.005 370.043C966.11 369.804 965.511 369.731 965.207 369.826C964.808 369.955 964.547 370.249 964.424 370.708C964.335 371.042 964.353 371.383 964.478 371.732C964.602 372.081 964.846 372.374 965.207 372.61C965.562 372.845 966.165 373.076 967.014 373.303L971.343 374.463L970.704 376.849L965.763 375.525C964.886 375.29 964.309 375.181 964.031 375.198C963.754 375.214 963.529 375.296 963.355 375.444C963.184 375.586 963.057 375.81 962.975 376.116C962.877 376.484 962.887 376.841 963.006 377.189C963.126 377.536 963.355 377.825 963.693 378.055C964.033 378.28 964.636 378.508 965.502 378.74L969.883 379.914L969.244 382.299L960.228 379.884ZM974.717 361.873L962.271 358.539L962.944 356.026L975.39 359.361L974.717 361.873ZM966.995 354.627L967.591 352.403L968.916 352.758C968.54 352.348 968.277 351.859 968.126 351.29C967.975 350.722 967.98 350.138 968.14 349.538C968.421 348.491 969.069 347.712 970.086 347.202C971.102 346.692 972.343 346.633 973.809 347.026C975.314 347.43 976.387 348.111 977.028 349.072C977.663 350.03 977.84 351.033 977.559 352.08C977.426 352.578 977.206 353.004 976.898 353.359C976.593 353.708 976.139 354.041 975.538 354.359L980.08 355.576L979.441 357.962L966.995 354.627ZM971.983 353.434C972.996 353.705 973.8 353.705 974.394 353.434C974.983 353.161 975.355 352.736 975.509 352.159C975.658 351.604 975.561 351.084 975.218 350.597C974.869 350.11 974.188 349.73 973.175 349.459C972.23 349.205 971.478 349.207 970.918 349.463C970.358 349.72 970.002 350.128 969.852 350.688C969.696 351.271 969.793 351.816 970.142 352.322C970.486 352.827 971.1 353.197 971.983 353.434ZM976.08 346.497L976.356 344.005C976.848 344.028 977.257 343.916 977.584 343.67C977.905 343.422 978.14 343.018 978.29 342.458C978.456 341.841 978.467 341.347 978.324 340.975C978.222 340.723 978.037 340.561 977.771 340.49C977.59 340.442 977.425 340.458 977.276 340.539C977.131 340.628 976.955 340.866 976.748 341.253C975.808 343.064 975.093 344.18 974.605 344.601C973.927 345.183 973.155 345.359 972.289 345.127C971.508 344.917 970.934 344.433 970.567 343.673C970.201 342.914 970.191 341.886 970.538 340.59C970.869 339.356 971.315 338.493 971.878 338.001C972.44 337.509 973.145 337.255 973.993 337.239L973.806 339.6C973.429 339.603 973.111 339.715 972.852 339.936C972.594 340.152 972.398 340.509 972.264 341.007C972.096 341.635 972.063 342.109 972.166 342.428C972.242 342.642 972.379 342.776 972.577 342.829C972.747 342.874 972.912 342.834 973.074 342.707C973.29 342.535 973.712 341.853 974.34 340.663C974.97 339.467 975.562 338.673 976.116 338.281C976.674 337.897 977.332 337.806 978.09 338.01C978.917 338.231 979.534 338.767 979.944 339.616C980.353 340.466 980.376 341.567 980.014 342.92C979.685 344.148 979.175 345.055 978.484 345.64C977.795 346.22 976.994 346.505 976.08 346.497ZM983.061 330.734L981.711 330.372C982.104 330.829 982.367 331.364 982.5 331.976C982.635 332.582 982.623 333.182 982.464 333.777C982.302 334.382 982.023 334.89 981.628 335.3C981.233 335.709 980.766 335.957 980.228 336.044C979.689 336.13 978.995 336.059 978.146 335.832L972.441 334.303L973.08 331.917L977.223 333.028C978.491 333.367 979.281 333.533 979.592 333.526C979.899 333.511 980.169 333.41 980.401 333.224C980.627 333.036 980.788 332.763 980.884 332.407C980.993 331.999 980.98 331.605 980.846 331.223C980.706 330.84 980.488 330.545 980.191 330.338C979.889 330.13 979.093 329.853 977.803 329.507L973.999 328.488L974.639 326.102L983.654 328.518L983.061 330.734ZM975.255 323.801L975.844 321.603L977.075 321.932C976.329 320.889 976.102 319.825 976.393 318.738C976.548 318.161 976.801 317.692 977.153 317.331C977.504 316.97 977.957 316.718 978.511 316.576C978.136 316.05 977.891 315.527 977.776 315.005C977.661 314.483 977.673 313.961 977.813 313.44C977.99 312.778 978.276 312.254 978.671 311.869C979.06 311.482 979.545 311.245 980.126 311.158C980.555 311.097 981.199 311.181 982.06 311.412L987.824 312.956L987.185 315.342L982.032 313.961C981.138 313.722 980.538 313.649 980.234 313.743C979.835 313.873 979.574 314.167 979.452 314.626C979.362 314.96 979.38 315.301 979.505 315.65C979.63 315.999 979.873 316.291 980.234 316.528C980.59 316.763 981.192 316.994 982.041 317.221L986.371 318.381L985.731 320.767L980.79 319.443C979.913 319.208 979.336 319.099 979.058 319.115C978.781 319.132 978.556 319.214 978.383 319.362C978.211 319.504 978.084 319.728 978.003 320.034C977.904 320.401 977.914 320.759 978.034 321.106C978.153 321.454 978.382 321.743 978.72 321.973C979.061 322.198 979.664 322.426 980.53 322.658L984.91 323.832L984.271 326.217L975.255 323.801ZM985.544 305.267L985.962 302.758C986.822 302.831 987.504 302.695 988.009 302.351C988.515 302.001 988.871 301.444 989.075 300.68C989.292 299.871 989.285 299.217 989.055 298.719C988.82 298.213 988.474 297.899 988.016 297.776C987.721 297.697 987.449 297.718 987.198 297.839C986.943 297.953 986.682 298.204 986.414 298.593C986.233 298.86 985.872 299.482 985.331 300.46C984.636 301.717 983.973 302.552 983.34 302.965C982.451 303.546 981.514 303.704 980.529 303.44C979.895 303.27 979.351 302.934 978.898 302.43C978.44 301.919 978.157 301.288 978.049 300.538C977.942 299.781 978.017 298.925 978.274 297.968C978.692 296.406 979.349 295.323 980.245 294.72C981.142 294.111 982.167 293.94 983.321 294.207L982.758 296.749C982.09 296.686 981.569 296.795 981.197 297.077C980.82 297.352 980.536 297.843 980.347 298.551C980.151 299.281 980.148 299.893 980.337 300.386C980.458 300.704 980.68 300.906 981.003 300.992C981.297 301.071 981.582 301.014 981.858 300.821C982.209 300.576 982.693 299.88 983.309 298.735C983.925 297.59 984.467 296.767 984.935 296.268C985.398 295.761 985.942 295.416 986.568 295.232C987.19 295.04 987.894 295.05 988.68 295.261C989.394 295.452 990.008 295.829 990.525 296.392C991.041 296.955 991.355 297.639 991.467 298.446C991.572 299.251 991.481 300.194 991.191 301.275C990.769 302.848 990.083 303.959 989.133 304.608C988.177 305.256 986.981 305.475 985.544 305.267ZM984.959 287.585L986.861 288.094L986.424 289.724L990.058 290.698C990.793 290.895 991.227 290.996 991.359 291.001C991.487 290.999 991.605 290.955 991.713 290.869C991.823 290.777 991.899 290.651 991.942 290.493C992.001 290.272 992.01 289.932 991.969 289.472L993.875 289.764C993.964 290.383 993.914 291.043 993.726 291.745C993.611 292.175 993.436 292.544 993.202 292.851C992.963 293.157 992.708 293.361 992.437 293.465C992.163 293.561 991.822 293.588 991.415 293.546C991.124 293.522 990.557 293.398 989.713 293.172L985.783 292.118L985.489 293.214L983.588 292.704L983.881 291.609L982.09 291.129L981.339 288.362L984.522 289.215L984.959 287.585ZM994.419 288.345L992.033 287.706L992.672 285.32L995.058 285.96L994.419 288.345Z" fill="white"/>
<path d="M994.438 526.406C994.438 534.781 975.094 539.156 955.969 539.156C936.844 539.156 917.5 534.781 917.5 526.406C917.5 519.906 929.281 515.812 943.562 514.344L944.843 516.532L946.124 518.75L951.906 528.75C952.749 530.188 954.312 531.094 955.968 531.094C957.624 531.094 959.187 530.188 960.031 528.75L965.812 518.75L967.093 516.532L968.374 514.344C982.655 515.813 994.436 519.907 994.436 526.406H994.438ZM934.157 491.781C931.907 487.844 930.751 483.625 930.751 479.219C930.751 465.313 942.063 454 955.97 454C965.064 454 973.22 458.688 977.751 466.562C982.313 474.468 982.345 483.874 977.782 491.781L964.907 514.031L963.626 516.281L962.313 518.531L957.313 527.187C957.032 527.656 956.532 527.969 955.97 527.969C955.407 527.969 954.907 527.656 954.626 527.187L949.626 518.531L948.313 516.281L947.032 514.031L934.157 491.781ZM946.345 478.593C946.345 483.906 950.658 488.218 955.97 488.218C961.283 488.218 965.595 483.906 965.595 478.593C965.595 473.281 961.283 468.968 955.97 468.968C950.658 468.968 946.345 473.281 946.345 478.593Z" fill="white"/>
<path opacity="0.8" d="M391.035 439.428L280.206 408.724L316.524 277.63L427.386 311.834L391.035 439.428Z" stroke="white"/>
<path opacity="0.8" d="M487.456 635.944L364.596 601.907L443.02 318.824L565.387 356.334L487.456 635.944Z" stroke="white"/>
<rect opacity="0.8" x="272.526" y="425.615" width="115" height="142" transform="rotate(15.4848 272.526 425.615)" stroke="white"/>
<defs>
<linearGradient id="paint0_linear_57_23" x1="787.383" y1="535" x2="787.383" y2="672" gradientUnits="userSpaceOnUse">
<stop stop-color="white"/>
<stop offset="1" stop-color="white" stop-opacity="0"/>
</linearGradient>
<linearGradient id="paint1_linear_57_23" x1="980.5" y1="181" x2="1232" y2="490" gradientUnits="userSpaceOnUse">
<stop offset="0.318685" stop-color="white"/>
<stop offset="1" stop-color="white" stop-opacity="0"/>
</linearGradient>
<linearGradient id="paint2_linear_57_23" x1="477.107" y1="255.841" x2="106.49" y2="402.048" gradientUnits="userSpaceOnUse">
<stop offset="0.318685" stop-color="white"/>
<stop offset="1" stop-color="white" stop-opacity="0"/>
</linearGradient>
</defs>
</svg>
